<svg xmlns="http://www.w3.org/2000/svg" width="32" height="32" shape-rendering="crispEdges"><path fill="#49251F" d="M0 0h1v1H0zm1 0h1v1H1zm1 0h1v1H2zm1 0h1v1H3zm1 0h1v1H4zm1 0h1v1H5zm1 0h1v1H6zm1 0h1v1H7zm1 0h1v1H8zm1 0h1v1H9zm1 0h1v1h-1zm1 0h1v1h-1zm1 0h1v1h-1zm1 0h1v1h-1zm1 0h1v1h-1zm1 0h1v1h-1zm1 0h1v1h-1zm1 0h1v1h-1zm1 0h1v1h-1zm1 0h1v1h-1zm1 0h1v1h-1zm1 0h1v1h-1zm1 0h1v1h-1zm1 0h1v1h-1zm1 0h1v1h-1zm1 0h1v1h-1zm1 0h1v1h-1zm1 0h1v1h-1zm1 0h1v1h-1zm1 0h1v1h-1zm1 0h1v1h-1zm1 0h1v1h-1zM0 1h1v1H0z"/><path fill="#663931" d="M1 1h1v1H1zm1 0h1v1H2zm1 0h1v1H3zm1 0h1v1H4zm1 0h1v1H5zm1 0h1v1H6zm1 0h1v1H7zm1 0h1v1H8zm1 0h1v1H9zm1 0h1v1h-1zm1 0h1v1h-1zm1 0h1v1h-1zm1 0h1v1h-1zm1 0h1v1h-1z"/><path fill="#49251F" d="M15 1h1v1h-1z"/><path fill="#663931" d="M16 1h1v1h-1zm1 0h1v1h-1zm1 0h1v1h-1zm1 0h1v1h-1z"/><path fill="#49251F" d="M20 1h1v1h-1zm1 0h1v1h-1zm1 0h1v1h-1zm1 0h1v1h-1zm1 0h1v1h-1z"/><path fill="#663931" d="M25 1h1v1h-1zm1 0h1v1h-1zm1 0h1v1h-1z"/><path fill="#49251F" d="M28 1h1v1h-1zm1 0h1v1h-1zm1 0h1v1h-1zm1 0h1v1h-1zM0 2h1v1H0z"/><path fill="#663931" d="M1 2h1v1H1z"/><path fill="#49251F" d="M2 2h1v1H2zm1 0h1v1H3zm1 0h1v1H4zm1 0h1v1H5zm1 0h1v1H6zm1 0h1v1H7zm1 0h1v1H8zm1 0h1v1H9zm1 0h1v1h-1zm1 0h1v1h-1zm1 0h1v1h-1zm1 0h1v1h-1z"/><path fill="#663931" d="M14 2h1v1h-1z"/><path fill="#49251F" d="M15 2h1v1h-1z"/><path fill="#663931" d="M16 2h1v1h-1zm1 0h1v1h-1zm1 0h1v1h-1zm1 0h1v1h-1zm1 0h1v1h-1zm1 0h1v1h-1z"/><path fill="#49251F" d="M22 2h1v1h-1zm1 0h1v1h-1z"/><path fill="#663931" d="M24 2h1v1h-1zm1 0h1v1h-1zm1 0h1v1h-1zm1 0h1v1h-1zm1 0h1v1h-1z"/><path fill="#49251F" d="M29 2h1v1h-1zm1 0h1v1h-1zm1 0h1v1h-1zM0 3h1v1H0z"/><path fill="#663931" d="M1 3h1v1H1z"/><path fill="#49251F" d="M2 3h1v1H2z"/><path fill="#663931" d="M3 3h1v1H3zm1 0h1v1H4zm1 0h1v1H5zm1 0h1v1H6zm1 0h1v1H7zm1 0h1v1H8zm1 0h1v1H9zm1 0h1v1h-1zm1 0h1v1h-1zm1 0h1v1h-1z"/><path fill="#49251F" d="M13 3h1v1h-1z"/><path fill="#663931" d="M14 3h1v1h-1z"/><path fill="#49251F" d="M15 3h1v1h-1z"/><path fill="#663931" d="M16 3h1v1h-1zm1 0h1v1h-1zm1 0h1v1h-1zm1 0h1v1h-1zm1 0h1v1h-1zm1 0h1v1h-1z"/><path fill="#49251F" d="M22 3h1v1h-1zm1 0h1v1h-1z"/><path fill="#663931" d="M24 3h1v1h-1zm1 0h1v1h-1zm1 0h1v1h-1z"/><path fill="#49251F" d="M27 3h1v1h-1z"/><path fill="#663931" d="M28 3h1v1h-1zm1 0h1v1h-1z"/><path fill="#49251F" d="M30 3h1v1h-1zm1 0h1v1h-1zM0 4h1v1H0z"/><path fill="#663931" d="M1 4h1v1H1z"/><path fill="#49251F" d="M2 4h1v1H2z"/><path fill="#663931" d="M3 4h1v1H3z"/><path fill="#49251F" d="M4 4h1v1H4zm1 0h1v1H5zm1 0h1v1H6zm1 0h1v1H7zm1 0h1v1H8zm1 0h1v1H9zm1 0h1v1h-1zm1 0h1v1h-1z"/><path fill="#663931" d="M12 4h1v1h-1z"/><path fill="#49251F" d="M13 4h1v1h-1z"/><path fill="#663931" d="M14 4h1v1h-1z"/><path fill="#49251F" d="M15 4h1v1h-1z"/><path fill="#663931" d="M16 4h1v1h-1zm1 0h1v1h-1zm1 0h1v1h-1zm1 0h1v1h-1zm1 0h1v1h-1zm1 0h1v1h-1z"/><path fill="#49251F" d="M22 4h1v1h-1zm1 0h1v1h-1zm1 0h1v1h-1z"/><path fill="#663931" d="M25 4h1v1h-1zm1 0h1v1h-1z"/><path fill="#49251F" d="M27 4h1v1h-1zm1 0h1v1h-1z"/><path fill="#663931" d="M29 4h1v1h-1zm1 0h1v1h-1z"/><path fill="#49251F" d="M31 4h1v1h-1zM0 5h1v1H0z"/><path fill="#663931" d="M1 5h1v1H1z"/><path fill="#49251F" d="M2 5h1v1H2z"/><path fill="#663931" d="M3 5h1v1H3z"/><path fill="#49251F" d="M4 5h1v1H4z"/><path fill="#663931" d="M5 5h1v1H5zm1 0h1v1H6zm1 0h1v1H7zm1 0h1v1H8zm1 0h1v1H9zm1 0h1v1h-1z"/><path fill="#49251F" d="M11 5h1v1h-1z"/><path fill="#663931" d="M12 5h1v1h-1z"/><path fill="#49251F" d="M13 5h1v1h-1z"/><path fill="#663931" d="M14 5h1v1h-1z"/><path fill="#49251F" d="M15 5h1v1h-1z"/><path fill="#663931" d="M16 5h1v1h-1zm1 0h1v1h-1zm1 0h1v1h-1zm1 0h1v1h-1zm1 0h1v1h-1z"/><path fill="#49251F" d="M21 5h1v1h-1zm1 0h1v1h-1zm1 0h1v1h-1zm1 0h1v1h-1zm1 0h1v1h-1z"/><path fill="#663931" d="M26 5h1v1h-1zm1 0h1v1h-1zm1 0h1v1h-1zm1 0h1v1h-1zm1 0h1v1h-1z"/><path fill="#49251F" d="M31 5h1v1h-1zM0 6h1v1H0z"/><path fill="#663931" d="M1 6h1v1H1z"/><path fill="#49251F" d="M2 6h1v1H2z"/><path fill="#663931" d="M3 6h1v1H3z"/><path fill="#49251F" d="M4 6h1v1H4z"/><path fill="#663931" d="M5 6h1v1H5z"/><path fill="#49251F" d="M6 6h1v1H6zm1 0h1v1H7zm1 0h1v1H8zm1 0h1v1H9z"/><path fill="#663931" d="M10 6h1v1h-1z"/><path fill="#49251F" d="M11 6h1v1h-1z"/><path fill="#663931" d="M12 6h1v1h-1z"/><path fill="#49251F" d="M13 6h1v1h-1z"/><path fill="#663931" d="M14 6h1v1h-1z"/><path fill="#49251F" d="M15 6h1v1h-1z"/><path fill="#663931" d="M16 6h1v1h-1zm1 0h1v1h-1zm1 0h1v1h-1zm1 0h1v1h-1z"/><path fill="#49251F" d="M20 6h1v1h-1zm1 0h1v1h-1zm1 0h1v1h-1zm1 0h1v1h-1zm1 0h1v1h-1zm1 0h1v1h-1zm1 0h1v1h-1z"/><path fill="#663931" d="M27 6h1v1h-1zm1 0h1v1h-1zm1 0h1v1h-1zm1 0h1v1h-1z"/><path fill="#49251F" d="M31 6h1v1h-1zM0 7h1v1H0z"/><path fill="#663931" d="M1 7h1v1H1z"/><path fill="#49251F" d="M2 7h1v1H2z"/><path fill="#663931" d="M3 7h1v1H3z"/><path fill="#49251F" d="M4 7h1v1H4z"/><path fill="#663931" d="M5 7h1v1H5z"/><path fill="#49251F" d="M6 7h1v1H6z"/><path fill="#663931" d="M7 7h1v1H7zm1 0h1v1H8z"/><path fill="#49251F" d="M9 7h1v1H9z"/><path fill="#663931" d="M10 7h1v1h-1z"/><path fill="#49251F" d="M11 7h1v1h-1z"/><path fill="#663931" d="M12 7h1v1h-1z"/><path fill="#49251F" d="M13 7h1v1h-1z"/><path fill="#663931" d="M14 7h1v1h-1z"/><path fill="#49251F" d="M15 7h1v1h-1z"/><path fill="#663931" d="M16 7h1v1h-1zm1 0h1v1h-1zm1 0h1v1h-1z"/><path fill="#49251F" d="M19 7h1v1h-1zm1 0h1v1h-1zm1 0h1v1h-1zm1 0h1v1h-1zm1 0h1v1h-1zm1 0h1v1h-1zm1 0h1v1h-1zm1 0h1v1h-1zm1 0h1v1h-1z"/><path fill="#663931" d="M28 7h1v1h-1zm1 0h1v1h-1z"/><path fill="#49251F" d="M30 7h1v1h-1zm1 0h1v1h-1zM0 8h1v1H0z"/><path fill="#663931" d="M1 8h1v1H1z"/><path fill="#49251F" d="M2 8h1v1H2z"/><path fill="#663931" d="M3 8h1v1H3z"/><path fill="#49251F" d="M4 8h1v1H4z"/><path fill="#663931" d="M5 8h1v1H5z"/><path fill="#49251F" d="M6 8h1v1H6z"/><path fill="#663931" d="M7 8h1v1H7zm1 0h1v1H8z"/><path fill="#49251F" d="M9 8h1v1H9z"/><path fill="#663931" d="M10 8h1v1h-1z"/><path fill="#49251F" d="M11 8h1v1h-1z"/><path fill="#663931" d="M12 8h1v1h-1z"/><path fill="#49251F" d="M13 8h1v1h-1z"/><path fill="#663931" d="M14 8h1v1h-1z"/><path fill="#49251F" d="M15 8h1v1h-1z"/><path fill="#663931" d="M16 8h1v1h-1zm1 0h1v1h-1zm1 0h1v1h-1z"/><path fill="#49251F" d="M19 8h1v1h-1zm1 0h1v1h-1zm1 0h1v1h-1zm1 0h1v1h-1zm1 0h1v1h-1zm1 0h1v1h-1zm1 0h1v1h-1zm1 0h1v1h-1zm1 0h1v1h-1zm1 0h1v1h-1zm1 0h1v1h-1zm1 0h1v1h-1zm1 0h1v1h-1zM0 9h1v1H0z"/><path fill="#663931" d="M1 9h1v1H1z"/><path fill="#49251F" d="M2 9h1v1H2z"/><path fill="#663931" d="M3 9h1v1H3z"/><path fill="#49251F" d="M4 9h1v1H4z"/><path fill="#663931" d="M5 9h1v1H5z"/><path fill="#49251F" d="M6 9h1v1H6zm1 0h1v1H7zm1 0h1v1H8zm1 0h1v1H9z"/><path fill="#663931" d="M10 9h1v1h-1z"/><path fill="#49251F" d="M11 9h1v1h-1z"/><path fill="#663931" d="M12 9h1v1h-1z"/><path fill="#49251F" d="M13 9h1v1h-1z"/><path fill="#663931" d="M14 9h1v1h-1z"/><path fill="#49251F" d="M15 9h1v1h-1z"/><path fill="#663931" d="M16 9h1v1h-1zm1 0h1v1h-1zm1 0h1v1h-1z"/><path fill="#49251F" d="M19 9h1v1h-1zm1 0h1v1h-1zm1 0h1v1h-1zm1 0h1v1h-1zm1 0h1v1h-1zm1 0h1v1h-1zm1 0h1v1h-1zm1 0h1v1h-1zm1 0h1v1h-1zm1 0h1v1h-1zm1 0h1v1h-1zm1 0h1v1h-1zm1 0h1v1h-1zM0 10h1v1H0z"/><path fill="#663931" d="M1 10h1v1H1z"/><path fill="#49251F" d="M2 10h1v1H2z"/><path fill="#663931" d="M3 10h1v1H3z"/><path fill="#49251F" d="M4 10h1v1H4z"/><path fill="#663931" d="M5 10h1v1H5zm1 0h1v1H6zm1 0h1v1H7zm1 0h1v1H8zm1 0h1v1H9zm1 0h1v1h-1z"/><path fill="#49251F" d="M11 10h1v1h-1z"/><path fill="#663931" d="M12 10h1v1h-1z"/><path fill="#49251F" d="M13 10h1v1h-1z"/><path fill="#663931" d="M14 10h1v1h-1z"/><path fill="#49251F" d="M15 10h1v1h-1z"/><path fill="#663931" d="M16 10h1v1h-1zm1 0h1v1h-1zm1 0h1v1h-1zm1 0h1v1h-1z"/><path fill="#49251F" d="M20 10h1v1h-1zm1 0h1v1h-1zm1 0h1v1h-1zm1 0h1v1h-1zm1 0h1v1h-1zm1 0h1v1h-1zm1 0h1v1h-1zm1 0h1v1h-1zm1 0h1v1h-1zm1 0h1v1h-1zm1 0h1v1h-1zm1 0h1v1h-1zM0 11h1v1H0z"/><path fill="#663931" d="M1 11h1v1H1z"/><path fill="#49251F" d="M2 11h1v1H2z"/><path fill="#663931" d="M3 11h1v1H3z"/><path fill="#49251F" d="M4 11h1v1H4zm1 0h1v1H5zm1 0h1v1H6zm1 0h1v1H7zm1 0h1v1H8zm1 0h1v1H9zm1 0h1v1h-1zm1 0h1v1h-1z"/><path fill="#663931" d="M12 11h1v1h-1z"/><path fill="#49251F" d="M13 11h1v1h-1z"/><path fill="#663931" d="M14 11h1v1h-1z"/><path fill="#49251F" d="M15 11h1v1h-1z"/><path fill="#663931" d="M16 11h1v1h-1zm1 0h1v1h-1zm1 0h1v1h-1zm1 0h1v1h-1zm1 0h1v1h-1z"/><path fill="#49251F" d="M21 11h1v1h-1zm1 0h1v1h-1zm1 0h1v1h-1zm1 0h1v1h-1zm1 0h1v1h-1zm1 0h1v1h-1z"/><path fill="#663931" d="M27 11h1v1h-1zm1 0h1v1h-1z"/><path fill="#49251F" d="M29 11h1v1h-1zm1 0h1v1h-1zm1 0h1v1h-1zM0 12h1v1H0z"/><path fill="#663931" d="M1 12h1v1H1z"/><path fill="#49251F" d="M2 12h1v1H2z"/><path fill="#663931" d="M3 12h1v1H3zm1 0h1v1H4zm1 0h1v1H5zm1 0h1v1H6zm1 0h1v1H7zm1 0h1v1H8zm1 0h1v1H9zm1 0h1v1h-1zm1 0h1v1h-1zm1 0h1v1h-1z"/><path fill="#49251F" d="M13 12h1v1h-1z"/><path fill="#663931" d="M14 12h1v1h-1z"/><path fill="#49251F" d="M15 12h1v1h-1z"/><path fill="#663931" d="M16 12h1v1h-1zm1 0h1v1h-1zm1 0h1v1h-1zm1 0h1v1h-1zm1 0h1v1h-1zm1 0h1v1h-1z"/><path fill="#49251F" d="M22 12h1v1h-1zm1 0h1v1h-1zm1 0h1v1h-1zm1 0h1v1h-1z"/><path fill="#663931" d="M26 12h1v1h-1zm1 0h1v1h-1zm1 0h1v1h-1z"/><path fill="#49251F" d="M29 12h1v1h-1zm1 0h1v1h-1zm1 0h1v1h-1zM0 13h1v1H0z"/><path fill="#663931" d="M1 13h1v1H1z"/><path fill="#49251F" d="M2 13h1v1H2zm1 0h1v1H3zm1 0h1v1H4zm1 0h1v1H5zm1 0h1v1H6zm1 0h1v1H7zm1 0h1v1H8zm1 0h1v1H9zm1 0h1v1h-1zm1 0h1v1h-1zm1 0h1v1h-1zm1 0h1v1h-1z"/><path fill="#663931" d="M14 13h1v1h-1z"/><path fill="#49251F" d="M15 13h1v1h-1z"/><path fill="#663931" d="M16 13h1v1h-1zm1 0h1v1h-1zm1 0h1v1h-1zm1 0h1v1h-1zm1 0h1v1h-1zm1 0h1v1h-1zm1 0h1v1h-1zm1 0h1v1h-1zm1 0h1v1h-1zm1 0h1v1h-1zm1 0h1v1h-1zm1 0h1v1h-1zm1 0h1v1h-1zm1 0h1v1h-1z"/><path fill="#49251F" d="M30 13h1v1h-1zm1 0h1v1h-1zM0 14h1v1H0z"/><path fill="#663931" d="M1 14h1v1H1zm1 0h1v1H2zm1 0h1v1H3zm1 0h1v1H4zm1 0h1v1H5zm1 0h1v1H6zm1 0h1v1H7zm1 0h1v1H8zm1 0h1v1H9zm1 0h1v1h-1zm1 0h1v1h-1zm1 0h1v1h-1zm1 0h1v1h-1zm1 0h1v1h-1z"/><path fill="#49251F" d="M15 14h1v1h-1z"/><path fill="#663931" d="M16 14h1v1h-1zm1 0h1v1h-1zm1 0h1v1h-1zm1 0h1v1h-1zm1 0h1v1h-1zm1 0h1v1h-1zm1 0h1v1h-1zm1 0h1v1h-1zm1 0h1v1h-1zm1 0h1v1h-1zm1 0h1v1h-1zm1 0h1v1h-1zm1 0h1v1h-1zm1 0h1v1h-1z"/><path fill="#49251F" d="M30 14h1v1h-1zm1 0h1v1h-1zM0 15h1v1H0zm1 0h1v1H1zm1 0h1v1H2zm1 0h1v1H3zm1 0h1v1H4zm1 0h1v1H5zm1 0h1v1H6zm1 0h1v1H7zm1 0h1v1H8zm1 0h1v1H9zm1 0h1v1h-1zm1 0h1v1h-1zm1 0h1v1h-1zm1 0h1v1h-1zm1 0h1v1h-1zm1 0h1v1h-1z"/><path fill="#663931" d="M16 15h1v1h-1zm1 0h1v1h-1zm1 0h1v1h-1zm1 0h1v1h-1zm1 0h1v1h-1zm1 0h1v1h-1zm1 0h1v1h-1zm1 0h1v1h-1zm1 0h1v1h-1zm1 0h1v1h-1zm1 0h1v1h-1zm1 0h1v1h-1zm1 0h1v1h-1zm1 0h1v1h-1zm1 0h1v1h-1z"/><path fill="#49251F" d="M31 15h1v1h-1zM0 16h1v1H0zm1 0h1v1H1zm1 0h1v1H2zm1 0h1v1H3z"/><path fill="#663931" d="M4 16h1v1H4zm1 0h1v1H5zm1 0h1v1H6zm1 0h1v1H7zm1 0h1v1H8zm1 0h1v1H9zm1 0h1v1h-1zm1 0h1v1h-1zm1 0h1v1h-1zm1 0h1v1h-1zm1 0h1v1h-1zm1 0h1v1h-1zm1 0h1v1h-1zm1 0h1v1h-1zm1 0h1v1h-1zm1 0h1v1h-1zm1 0h1v1h-1zm1 0h1v1h-1zm1 0h1v1h-1zm1 0h1v1h-1zm1 0h1v1h-1zm1 0h1v1h-1zm1 0h1v1h-1zm1 0h1v1h-1zm1 0h1v1h-1z"/><path fill="#49251F" d="M29 16h1v1h-1z"/><path fill="#663931" d="M30 16h1v1h-1zm1 0h1v1h-1zM0 17h1v1H0zm1 0h1v1H1zm1 0h1v1H2zm1 0h1v1H3z"/><path fill="#49251F" d="M4 17h1v1H4zm1 0h1v1H5zm1 0h1v1H6zm1 0h1v1H7zm1 0h1v1H8zm1 0h1v1H9z"/><path fill="#663931" d="M10 17h1v1h-1zm1 0h1v1h-1zm1 0h1v1h-1zm1 0h1v1h-1zm1 0h1v1h-1zm1 0h1v1h-1zm1 0h1v1h-1zm1 0h1v1h-1zm1 0h1v1h-1zm1 0h1v1h-1zm1 0h1v1h-1z"/><path fill="#49251F" d="M21 17h1v1h-1zm1 0h1v1h-1zm1 0h1v1h-1z"/><path fill="#663931" d="M24 17h1v1h-1zm1 0h1v1h-1zm1 0h1v1h-1zm1 0h1v1h-1zm1 0h1v1h-1z"/><path fill="#49251F" d="M29 17h1v1h-1z"/><path fill="#663931" d="M30 17h1v1h-1zm1 0h1v1h-1zM0 18h1v1H0zm1 0h1v1H1zm1 0h1v1H2zm1 0h1v1H3zm1 0h1v1H4zm1 0h1v1H5zm1 0h1v1H6zm1 0h1v1H7zm1 0h1v1H8zm1 0h1v1H9z"/><path fill="#49251F" d="M10 18h1v1h-1z"/><path fill="#663931" d="M11 18h1v1h-1zm1 0h1v1h-1zm1 0h1v1h-1zm1 0h1v1h-1zm1 0h1v1h-1zm1 0h1v1h-1zm1 0h1v1h-1zm1 0h1v1h-1z"/><path fill="#49251F" d="M19 18h1v1h-1zm1 0h1v1h-1z"/><path fill="#663931" d="M21 18h1v1h-1zm1 0h1v1h-1zm1 0h1v1h-1zm1 0h1v1h-1zm1 0h1v1h-1zm1 0h1v1h-1zm1 0h1v1h-1zm1 0h1v1h-1z"/><path fill="#49251F" d="M29 18h1v1h-1z"/><path fill="#663931" d="M30 18h1v1h-1zm1 0h1v1h-1zM0 19h1v1H0zm1 0h1v1H1zm1 0h1v1H2zm1 0h1v1H3zm1 0h1v1H4zm1 0h1v1H5zm1 0h1v1H6zm1 0h1v1H7zm1 0h1v1H8zm1 0h1v1H9zm1 0h1v1h-1z"/><path fill="#49251F" d="M11 19h1v1h-1zm1 0h1v1h-1z"/><path fill="#663931" d="M13 19h1v1h-1zm1 0h1v1h-1zm1 0h1v1h-1zm1 0h1v1h-1zm1 0h1v1h-1z"/><path fill="#49251F" d="M18 19h1v1h-1z"/><path fill="#663931" d="M19 19h1v1h-1zm1 0h1v1h-1zm1 0h1v1h-1z"/><path fill="#49251F" d="M22 19h1v1h-1zm1 0h1v1h-1zm1 0h1v1h-1zm1 0h1v1h-1zm1 0h1v1h-1z"/><path fill="#663931" d="M27 19h1v1h-1zm1 0h1v1h-1z"/><path fill="#49251F" d="M29 19h1v1h-1z"/><path fill="#663931" d="M30 19h1v1h-1zm1 0h1v1h-1zM0 20h1v1H0zm1 0h1v1H1zm1 0h1v1H2zm1 0h1v1H3z"/><path fill="#49251F" d="M4 20h1v1H4zm1 0h1v1H5zm1 0h1v1H6z"/><path fill="#663931" d="M7 20h1v1H7zm1 0h1v1H8zm1 0h1v1H9zm1 0h1v1h-1zm1 0h1v1h-1zm1 0h1v1h-1z"/><path fill="#49251F" d="M13 20h1v1h-1z"/><path fill="#663931" d="M14 20h1v1h-1zm1 0h1v1h-1zm1 0h1v1h-1zm1 0h1v1h-1z"/><path fill="#49251F" d="M18 20h1v1h-1z"/><path fill="#663931" d="M19 20h1v1h-1zm1 0h1v1h-1zm1 0h1v1h-1z"/><path fill="#49251F" d="M22 20h1v1h-1z"/><path fill="#663931" d="M23 20h1v1h-1zm1 0h1v1h-1zm1 0h1v1h-1zm1 0h1v1h-1z"/><path fill="#49251F" d="M27 20h1v1h-1z"/><path fill="#663931" d="M28 20h1v1h-1z"/><path fill="#49251F" d="M29 20h1v1h-1z"/><path fill="#663931" d="M30 20h1v1h-1zm1 0h1v1h-1zM0 21h1v1H0zm1 0h1v1H1zm1 0h1v1H2z"/><path fill="#49251F" d="M3 21h1v1H3z"/><path fill="#663931" d="M4 21h1v1H4zm1 0h1v1H5zm1 0h1v1H6z"/><path fill="#49251F" d="M7 21h1v1H7zm1 0h1v1H8z"/><path fill="#663931" d="M9 21h1v1H9zm1 0h1v1h-1zm1 0h1v1h-1zm1 0h1v1h-1zm1 0h1v1h-1z"/><path fill="#49251F" d="M14 21h1v1h-1z"/><path fill="#663931" d="M15 21h1v1h-1zm1 0h1v1h-1zm1 0h1v1h-1z"/><path fill="#49251F" d="M18 21h1v1h-1z"/><path fill="#663931" d="M19 21h1v1h-1zm1 0h1v1h-1zm1 0h1v1h-1z"/><path fill="#49251F" d="M22 21h1v1h-1z"/><path fill="#663931" d="M23 21h1v1h-1z"/><path fill="#49251F" d="M24 21h1v1h-1z"/><path fill="#663931" d="M25 21h1v1h-1zm1 0h1v1h-1z"/><path fill="#49251F" d="M27 21h1v1h-1z"/><path fill="#663931" d="M28 21h1v1h-1z"/><path fill="#49251F" d="M29 21h1v1h-1z"/><path fill="#663931" d="M30 21h1v1h-1zm1 0h1v1h-1zM0 22h1v1H0zm1 0h1v1H1z"/><path fill="#49251F" d="M2 22h1v1H2z"/><path fill="#663931" d="M3 22h1v1H3zm1 0h1v1H4zm1 0h1v1H5zm1 0h1v1H6zm1 0h1v1H7zm1 0h1v1H8z"/><path fill="#49251F" d="M9 22h1v1H9z"/><path fill="#663931" d="M10 22h1v1h-1zm1 0h1v1h-1zm1 0h1v1h-1zm1 0h1v1h-1z"/><path fill="#49251F" d="M14 22h1v1h-1z"/><path fill="#663931" d="M15 22h1v1h-1zm1 0h1v1h-1zm1 0h1v1h-1z"/><path fill="#49251F" d="M18 22h1v1h-1z"/><path fill="#663931" d="M19 22h1v1h-1zm1 0h1v1h-1zm1 0h1v1h-1z"/><path fill="#49251F" d="M22 22h1v1h-1z"/><path fill="#663931" d="M23 22h1v1h-1z"/><path fill="#49251F" d="M24 22h1v1h-1z"/><path fill="#663931" d="M25 22h1v1h-1zm1 0h1v1h-1z"/><path fill="#49251F" d="M27 22h1v1h-1z"/><path fill="#663931" d="M28 22h1v1h-1z"/><path fill="#49251F" d="M29 22h1v1h-1z"/><path fill="#663931" d="M30 22h1v1h-1zm1 0h1v1h-1zM0 23h1v1H0zm1 0h1v1H1z"/><path fill="#49251F" d="M2 23h1v1H2z"/><path fill="#663931" d="M3 23h1v1H3zm1 0h1v1H4zm1 0h1v1H5zm1 0h1v1H6zm1 0h1v1H7zm1 0h1v1H8zm1 0h1v1H9z"/><path fill="#49251F" d="M10 23h1v1h-1z"/><path fill="#663931" d="M11 23h1v1h-1zm1 0h1v1h-1zm1 0h1v1h-1z"/><path fill="#49251F" d="M14 23h1v1h-1z"/><path fill="#663931" d="M15 23h1v1h-1zm1 0h1v1h-1zm1 0h1v1h-1z"/><path fill="#49251F" d="M18 23h1v1h-1z"/><path fill="#663931" d="M19 23h1v1h-1zm1 0h1v1h-1zm1 0h1v1h-1z"/><path fill="#49251F" d="M22 23h1v1h-1z"/><path fill="#663931" d="M23 23h1v1h-1z"/><path fill="#49251F" d="M24 23h1v1h-1z"/><path fill="#663931" d="M25 23h1v1h-1zm1 0h1v1h-1z"/><path fill="#49251F" d="M27 23h1v1h-1z"/><path fill="#663931" d="M28 23h1v1h-1z"/><path fill="#49251F" d="M29 23h1v1h-1z"/><path fill="#663931" d="M30 23h1v1h-1zm1 0h1v1h-1zM0 24h1v1H0zm1 0h1v1H1z"/><path fill="#49251F" d="M2 24h1v1H2z"/><path fill="#663931" d="M3 24h1v1H3zm1 0h1v1H4z"/><path fill="#49251F" d="M5 24h1v1H5zm1 0h1v1H6zm1 0h1v1H7z"/><path fill="#663931" d="M8 24h1v1H8zm1 0h1v1H9z"/><path fill="#49251F" d="M10 24h1v1h-1z"/><path fill="#663931" d="M11 24h1v1h-1zm1 0h1v1h-1z"/><path fill="#49251F" d="M13 24h1v1h-1z"/><path fill="#663931" d="M14 24h1v1h-1zm1 0h1v1h-1zm1 0h1v1h-1zm1 0h1v1h-1z"/><path fill="#49251F" d="M18 24h1v1h-1z"/><path fill="#663931" d="M19 24h1v1h-1zm1 0h1v1h-1zm1 0h1v1h-1z"/><path fill="#49251F" d="M22 24h1v1h-1z"/><path fill="#663931" d="M23 24h1v1h-1z"/><path fill="#49251F" d="M24 24h1v1h-1z"/><path fill="#663931" d="M25 24h1v1h-1zm1 0h1v1h-1z"/><path fill="#49251F" d="M27 24h1v1h-1z"/><path fill="#663931" d="M28 24h1v1h-1zm1 0h1v1h-1zm1 0h1v1h-1zm1 0h1v1h-1zM0 25h1v1H0z"/><path fill="#49251F" d="M1 25h1v1H1z"/><path fill="#663931" d="M2 25h1v1H2zm1 0h1v1H3z"/><path fill="#49251F" d="M4 25h1v1H4z"/><path fill="#663931" d="M5 25h1v1H5zm1 0h1v1H6zm1 0h1v1H7zm1 0h1v1H8z"/><path fill="#49251F" d="M9 25h1v1H9z"/><path fill="#663931" d="M10 25h1v1h-1zm1 0h1v1h-1zm1 0h1v1h-1z"/><path fill="#49251F" d="M13 25h1v1h-1z"/><path fill="#663931" d="M14 25h1v1h-1zm1 0h1v1h-1zm1 0h1v1h-1zm1 0h1v1h-1z"/><path fill="#49251F" d="M18 25h1v1h-1z"/><path fill="#663931" d="M19 25h1v1h-1zm1 0h1v1h-1zm1 0h1v1h-1z"/><path fill="#49251F" d="M22 25h1v1h-1z"/><path fill="#663931" d="M23 25h1v1h-1z"/><path fill="#49251F" d="M24 25h1v1h-1z"/><path fill="#663931" d="M25 25h1v1h-1zm1 0h1v1h-1z"/><path fill="#49251F" d="M27 25h1v1h-1z"/><path fill="#663931" d="M28 25h1v1h-1zm1 0h1v1h-1z"/><path fill="#49251F" d="M30 25h1v1h-1zm1 0h1v1h-1z"/><path fill="#663931" d="M0 26h1v1H0z"/><path fill="#49251F" d="M1 26h1v1H1z"/><path fill="#663931" d="M2 26h1v1H2zm1 0h1v1H3zm1 0h1v1H4z"/><path fill="#49251F" d="M5 26h1v1H5z"/><path fill="#663931" d="M6 26h1v1H6zm1 0h1v1H7zm1 0h1v1H8z"/><path fill="#49251F" d="M9 26h1v1H9z"/><path fill="#663931" d="M10 26h1v1h-1zm1 0h1v1h-1zm1 0h1v1h-1z"/><path fill="#49251F" d="M13 26h1v1h-1z"/><path fill="#663931" d="M14 26h1v1h-1zm1 0h1v1h-1zm1 0h1v1h-1zm1 0h1v1h-1z"/><path fill="#49251F" d="M18 26h1v1h-1z"/><path fill="#663931" d="M19 26h1v1h-1zm1 0h1v1h-1zm1 0h1v1h-1zm1 0h1v1h-1zm1 0h1v1h-1z"/><path fill="#49251F" d="M24 26h1v1h-1z"/><path fill="#663931" d="M25 26h1v1h-1zm1 0h1v1h-1z"/><path fill="#49251F" d="M27 26h1v1h-1z"/><path fill="#663931" d="M28 26h1v1h-1z"/><path fill="#49251F" d="M29 26h1v1h-1z"/><path fill="#663931" d="M30 26h1v1h-1zm1 0h1v1h-1zM0 27h1v1H0zm1 0h1v1H1z"/><path fill="#49251F" d="M2 27h1v1H2z"/><path fill="#663931" d="M3 27h1v1H3zm1 0h1v1H4zm1 0h1v1H5z"/><path fill="#49251F" d="M6 27h1v1H6zm1 0h1v1H7zm1 0h1v1H8z"/><path fill="#663931" d="M9 27h1v1H9zm1 0h1v1h-1zm1 0h1v1h-1zm1 0h1v1h-1z"/><path fill="#49251F" d="M13 27h1v1h-1z"/><path fill="#663931" d="M14 27h1v1h-1zm1 0h1v1h-1zm1 0h1v1h-1zm1 0h1v1h-1z"/><path fill="#49251F" d="M18 27h1v1h-1z"/><path fill="#663931" d="M19 27h1v1h-1zm1 0h1v1h-1zm1 0h1v1h-1zm1 0h1v1h-1zm1 0h1v1h-1z"/><path fill="#49251F" d="M24 27h1v1h-1z"/><path fill="#663931" d="M25 27h1v1h-1zm1 0h1v1h-1zm1 0h1v1h-1zm1 0h1v1h-1z"/><path fill="#49251F" d="M29 27h1v1h-1z"/><path fill="#663931" d="M30 27h1v1h-1zm1 0h1v1h-1zM0 28h1v1H0zm1 0h1v1H1zm1 0h1v1H2z"/><path fill="#49251F" d="M3 28h1v1H3z"/><path fill="#663931" d="M4 28h1v1H4zm1 0h1v1H5zm1 0h1v1H6zm1 0h1v1H7zm1 0h1v1H8zm1 0h1v1H9zm1 0h1v1h-1zm1 0h1v1h-1z"/><path fill="#49251F" d="M12 28h1v1h-1z"/><path fill="#663931" d="M13 28h1v1h-1zm1 0h1v1h-1zm1 0h1v1h-1zm1 0h1v1h-1zm1 0h1v1h-1z"/><path fill="#49251F" d="M18 28h1v1h-1z"/><path fill="#663931" d="M19 28h1v1h-1zm1 0h1v1h-1zm1 0h1v1h-1zm1 0h1v1h-1zm1 0h1v1h-1z"/><path fill="#49251F" d="M24 28h1v1h-1z"/><path fill="#663931" d="M25 28h1v1h-1zm1 0h1v1h-1zm1 0h1v1h-1zm1 0h1v1h-1z"/><path fill="#49251F" d="M29 28h1v1h-1z"/><path fill="#663931" d="M30 28h1v1h-1zm1 0h1v1h-1zM0 29h1v1H0zm1 0h1v1H1zm1 0h1v1H2zm1 0h1v1H3z"/><path fill="#49251F" d="M4 29h1v1H4zm1 0h1v1H5zm1 0h1v1H6zm1 0h1v1H7zm1 0h1v1H8zm1 0h1v1H9zm1 0h1v1h-1zm1 0h1v1h-1z"/><path fill="#663931" d="M12 29h1v1h-1zm1 0h1v1h-1zm1 0h1v1h-1zm1 0h1v1h-1zm1 0h1v1h-1zm1 0h1v1h-1z"/><path fill="#49251F" d="M18 29h1v1h-1zm1 0h1v1h-1zm1 0h1v1h-1zm1 0h1v1h-1zm1 0h1v1h-1zm1 0h1v1h-1zm1 0h1v1h-1z"/><path fill="#663931" d="M25 29h1v1h-1z"/><path fill="#49251F" d="M26 29h1v1h-1zm1 0h1v1h-1zm1 0h1v1h-1zm1 0h1v1h-1z"/><path fill="#663931" d="M30 29h1v1h-1zm1 0h1v1h-1zM0 30h1v1H0zm1 0h1v1H1zm1 0h1v1H2zm1 0h1v1H3zm1 0h1v1H4zm1 0h1v1H5zm1 0h1v1H6zm1 0h1v1H7zm1 0h1v1H8zm1 0h1v1H9zm1 0h1v1h-1zm1 0h1v1h-1zm1 0h1v1h-1zm1 0h1v1h-1zm1 0h1v1h-1zm1 0h1v1h-1zm1 0h1v1h-1zm1 0h1v1h-1z"/><path fill="#49251F" d="M18 30h1v1h-1z"/><path fill="#663931" d="M19 30h1v1h-1z"/><path fill="#49251F" d="M20 30h1v1h-1z"/><path fill="#663931" d="M21 30h1v1h-1zm1 0h1v1h-1zm1 0h1v1h-1zm1 0h1v1h-1zm1 0h1v1h-1zm1 0h1v1h-1zm1 0h1v1h-1zm1 0h1v1h-1zm1 0h1v1h-1z"/><path fill="#49251F" d="M30 30h1v1h-1z"/><path fill="#663931" d="M31 30h1v1h-1zM0 31h1v1H0zm1 0h1v1H1zm1 0h1v1H2zm1 0h1v1H3zm1 0h1v1H4zm1 0h1v1H5zm1 0h1v1H6zm1 0h1v1H7zm1 0h1v1H8zm1 0h1v1H9zm1 0h1v1h-1zm1 0h1v1h-1zm1 0h1v1h-1zm1 0h1v1h-1zm1 0h1v1h-1zm1 0h1v1h-1zm1 0h1v1h-1zm1 0h1v1h-1zm1 0h1v1h-1zm1 0h1v1h-1z"/><path fill="#49251F" d="M20 31h1v1h-1z"/><path fill="#663931" d="M21 31h1v1h-1zm1 0h1v1h-1zm1 0h1v1h-1zm1 0h1v1h-1zm1 0h1v1h-1zm1 0h1v1h-1zm1 0h1v1h-1zm1 0h1v1h-1zm1 0h1v1h-1zm1 0h1v1h-1z"/><path fill="#49251F" d="M31 31h1v1h-1z"/></svg>