<svg xmlns="http://www.w3.org/2000/svg" width="16" height="16" shape-rendering="crispEdges"><path fill="#FFF" d="M6 0h1v1H6zm1 0h1v1H7zm1 0h1v1H8zm1 0h1v1H9zM4 1h1v1H4zm1 0h1v1H5zm1 0h1v1H6zm1 0h1v1H7zm1 0h1v1H8zm1 0h1v1H9zm1 0h1v1h-1zm1 0h1v1h-1zM3 2h1v1H3zm1 0h1v1H4zm1 0h1v1H5z"/><path fill="#CBDBFC" d="M6 2h1v1H6zm1 0h1v1H7zm1 0h1v1H8zm1 0h1v1H9z"/><path fill="#FFF" d="M10 2h1v1h-1zm1 0h1v1h-1zm1 0h1v1h-1zM2 3h1v1H2zm1 0h1v1H3z"/><path fill="#CBDBFC" d="M4 3h1v1H4zm1 0h1v1H5zm1 0h1v1H6zm1 0h1v1H7zm1 0h1v1H8zm1 0h1v1H9zm1 0h1v1h-1zm1 0h1v1h-1z"/><path fill="#FFF" d="M12 3h1v1h-1zm1 0h1v1h-1zM1 4h1v1H1zm1 0h1v1H2z"/><path fill="#CBDBFC" d="M3 4h1v1H3zm1 0h1v1H4zm1 0h1v1H5zm1 0h1v1H6zm1 0h1v1H7zm1 0h1v1H8zm1 0h1v1H9zm1 0h1v1h-1zm1 0h1v1h-1zm1 0h1v1h-1z"/><path fill="#FFF" d="M13 4h1v1h-1zm1 0h1v1h-1zM1 5h1v1H1zm1 0h1v1H2z"/><path fill="#CBDBFC" d="M3 5h1v1H3zm1 0h1v1H4zm1 0h1v1H5zm1 0h1v1H6zm1 0h1v1H7zm1 0h1v1H8zm1 0h1v1H9zm1 0h1v1h-1zm1 0h1v1h-1zm1 0h1v1h-1z"/><path fill="#FFF" d="M13 5h1v1h-1zm1 0h1v1h-1zM0 6h1v1H0zm1 0h1v1H1z"/><path fill="#CBDBFC" d="M2 6h1v1H2zm1 0h1v1H3zm1 0h1v1H4zm1 0h1v1H5zm1 0h1v1H6zm1 0h1v1H7zm1 0h1v1H8zm1 0h1v1H9zm1 0h1v1h-1zm1 0h1v1h-1zm1 0h1v1h-1zm1 0h1v1h-1z"/><path fill="#FFF" d="M14 6h1v1h-1zm1 0h1v1h-1zM0 7h1v1H0zm1 0h1v1H1z"/><path fill="#CBDBFC" d="M2 7h1v1H2zm1 0h1v1H3zm1 0h1v1H4zm1 0h1v1H5zm1 0h1v1H6zm1 0h1v1H7zm1 0h1v1H8zm1 0h1v1H9zm1 0h1v1h-1zm1 0h1v1h-1zm1 0h1v1h-1zm1 0h1v1h-1z"/><path fill="#FFF" d="M14 7h1v1h-1zm1 0h1v1h-1zM0 8h1v1H0zm1 0h1v1H1z"/><path fill="#CBDBFC" d="M2 8h1v1H2zm1 0h1v1H3zm1 0h1v1H4zm1 0h1v1H5zm1 0h1v1H6zm1 0h1v1H7zm1 0h1v1H8zm1 0h1v1H9zm1 0h1v1h-1zm1 0h1v1h-1zm1 0h1v1h-1zm1 0h1v1h-1z"/><path fill="#FFF" d="M14 8h1v1h-1zm1 0h1v1h-1zM0 9h1v1H0zm1 0h1v1H1z"/><path fill="#CBDBFC" d="M2 9h1v1H2zm1 0h1v1H3zm1 0h1v1H4zm1 0h1v1H5zm1 0h1v1H6zm1 0h1v1H7zm1 0h1v1H8zm1 0h1v1H9zm1 0h1v1h-1zm1 0h1v1h-1zm1 0h1v1h-1zm1 0h1v1h-1z"/><path fill="#FFF" d="M14 9h1v1h-1zm1 0h1v1h-1zM1 10h1v1H1zm1 0h1v1H2z"/><path fill="#CBDBFC" d="M3 10h1v1H3zm1 0h1v1H4zm1 0h1v1H5zm1 0h1v1H6zm1 0h1v1H7zm1 0h1v1H8zm1 0h1v1H9zm1 0h1v1h-1zm1 0h1v1h-1zm1 0h1v1h-1z"/><path fill="#FFF" d="M13 10h1v1h-1zm1 0h1v1h-1zM1 11h1v1H1zm1 0h1v1H2z"/><path fill="#CBDBFC" d="M3 11h1v1H3zm1 0h1v1H4zm1 0h1v1H5zm1 0h1v1H6zm1 0h1v1H7zm1 0h1v1H8zm1 0h1v1H9zm1 0h1v1h-1zm1 0h1v1h-1zm1 0h1v1h-1z"/><path fill="#FFF" d="M13 11h1v1h-1zm1 0h1v1h-1zM2 12h1v1H2zm1 0h1v1H3z"/><path fill="#CBDBFC" d="M4 12h1v1H4zm1 0h1v1H5zm1 0h1v1H6zm1 0h1v1H7zm1 0h1v1H8zm1 0h1v1H9zm1 0h1v1h-1zm1 0h1v1h-1z"/><path fill="#FFF" d="M12 12h1v1h-1zm1 0h1v1h-1zM3 13h1v1H3zm1 0h1v1H4zm1 0h1v1H5z"/><path fill="#CBDBFC" d="M6 13h1v1H6zm1 0h1v1H7zm1 0h1v1H8zm1 0h1v1H9z"/><path fill="#FFF" d="M10 13h1v1h-1zm1 0h1v1h-1zm1 0h1v1h-1zm-8 1h1v1H4zm1 0h1v1H5zm1 0h1v1H6zm1 0h1v1H7zm1 0h1v1H8zm1 0h1v1H9zm1 0h1v1h-1zm1 0h1v1h-1zm-5 1h1v1H6zm1 0h1v1H7zm1 0h1v1H8zm1 0h1v1H9z"/></svg>