<svg xmlns="http://www.w3.org/2000/svg" width="64" height="64" shape-rendering="crispEdges"><path fill="#0F380F" d="M0 0h1v1H0zm1 0h1v1H1zm1 0h1v1H2zm1 0h1v1H3zm1 0h1v1H4zm1 0h1v1H5zm1 0h1v1H6zm1 0h1v1H7zm1 0h1v1H8zm1 0h1v1H9zm1 0h1v1h-1zm1 0h1v1h-1zm1 0h1v1h-1zm1 0h1v1h-1zm1 0h1v1h-1zm1 0h1v1h-1zM0 1h1v1H0z"/><path fill="#9BBC0F" d="M1 1h1v1H1z"/><path fill="#96B810" d="M2 1h1v1H2z"/><path fill="#92B511" d="M3 1h1v1H3z"/><path fill="#8EB112" d="M4 1h1v1H4z"/><path fill="#8AAE14" d="M5 1h1v1H5z"/><path fill="#86AA15" d="M6 1h1v1H6z"/><path fill="#82A716" d="M7 1h1v1H7z"/><path fill="#7EA317" d="M8 1h1v1H8z"/><path fill="#7AA019" d="M9 1h1v1H9z"/><path fill="#759C1A" d="M10 1h1v1h-1z"/><path fill="#71991B" d="M11 1h1v1h-1z"/><path fill="#6D951C" d="M12 1h1v1h-1z"/><path fill="#69921E" d="M13 1h1v1h-1z"/><path fill="#658F1F" d="M14 1h1v1h-1z"/><path fill="#0F380F" d="M15 1h1v1h-1zM0 2h1v1H0z"/><path fill="#96B810" d="M1 2h1v1H1z"/><path fill="#92B511" d="M2 2h1v1H2z"/><path fill="#8EB112" d="M3 2h1v1H3z"/><path fill="#8AAE14" d="M4 2h1v1H4z"/><path fill="#86AA15" d="M5 2h1v1H5z"/><path fill="#82A716" d="M6 2h1v1H6z"/><path fill="#7EA317" d="M7 2h1v1H7z"/><path fill="#7AA019" d="M8 2h1v1H8z"/><path fill="#759C1A" d="M9 2h1v1H9z"/><path fill="#71991B" d="M10 2h1v1h-1z"/><path fill="#6D951C" d="M11 2h1v1h-1z"/><path fill="#69921E" d="M12 2h1v1h-1z"/><path fill="#658F1F" d="M13 2h1v1h-1z"/><path fill="#618B20" d="M14 2h1v1h-1z"/><path fill="#0F380F" d="M15 2h1v1h-1zM0 3h1v1H0z"/><path fill="#92B511" d="M1 3h1v1H1z"/><path fill="#8EB112" d="M2 3h1v1H2z"/><path fill="#8AAE14" d="M3 3h1v1H3z"/><path fill="#86AA15" d="M4 3h1v1H4z"/><path fill="#82A716" d="M5 3h1v1H5z"/><path fill="#7EA317" d="M6 3h1v1H6z"/><path fill="#7AA019" d="M7 3h1v1H7z"/><path fill="#759C1A" d="M8 3h1v1H8z"/><path fill="#71991B" d="M9 3h1v1H9z"/><path fill="#6D951C" d="M10 3h1v1h-1z"/><path fill="#69921E" d="M11 3h1v1h-1z"/><path fill="#658F1F" d="M12 3h1v1h-1z"/><path fill="#618B20" d="M13 3h1v1h-1z"/><path fill="#5D8822" d="M14 3h1v1h-1z"/><path fill="#0F380F" d="M15 3h1v1h-1zM0 4h1v1H0z"/><path fill="#8EB112" d="M1 4h1v1H1z"/><path fill="#8AAE14" d="M2 4h1v1H2z"/><path fill="#86AA15" d="M3 4h1v1H3z"/><path fill="#82A716" d="M4 4h1v1H4z"/><path fill="#7EA317" d="M5 4h1v1H5z"/><path fill="#7AA019" d="M6 4h1v1H6z"/><path fill="#759C1A" d="M7 4h1v1H7z"/><path fill="#71991B" d="M8 4h1v1H8z"/><path fill="#6D951C" d="M9 4h1v1H9z"/><path fill="#69921E" d="M10 4h1v1h-1z"/><path fill="#658F1F" d="M11 4h1v1h-1z"/><path fill="#618B20" d="M12 4h1v1h-1z"/><path fill="#5D8822" d="M13 4h1v1h-1z"/><path fill="#598423" d="M14 4h1v1h-1z"/><path fill="#0F380F" d="M15 4h1v1h-1zM0 5h1v1H0z"/><path fill="#8AAE14" d="M1 5h1v1H1z"/><path fill="#86AA15" d="M2 5h1v1H2z"/><path fill="#82A716" d="M3 5h1v1H3z"/><path fill="#7EA317" d="M4 5h1v1H4z"/><path fill="#7AA019" d="M5 5h1v1H5z"/><path fill="#759C1A" d="M6 5h1v1H6z"/><path fill="#71991B" d="M7 5h1v1H7z"/><path fill="#6D951C" d="M8 5h1v1H8z"/><path fill="#69921E" d="M9 5h1v1H9z"/><path fill="#658F1F" d="M10 5h1v1h-1z"/><path fill="#618B20" d="M11 5h1v1h-1z"/><path fill="#5D8822" d="M12 5h1v1h-1z"/><path fill="#598423" d="M13 5h1v1h-1z"/><path fill="#558124" d="M14 5h1v1h-1z"/><path fill="#0F380F" d="M15 5h1v1h-1zM0 6h1v1H0z"/><path fill="#86AA15" d="M1 6h1v1H1z"/><path fill="#82A716" d="M2 6h1v1H2z"/><path fill="#7EA317" d="M3 6h1v1H3z"/><path fill="#7AA019" d="M4 6h1v1H4z"/><path fill="#759C1A" d="M5 6h1v1H5z"/><path fill="#71991B" d="M6 6h1v1H6z"/><path fill="#6D951C" d="M7 6h1v1H7z"/><path fill="#69921E" d="M8 6h1v1H8z"/><path fill="#658F1F" d="M9 6h1v1H9z"/><path fill="#618B20" d="M10 6h1v1h-1z"/><path fill="#5D8822" d="M11 6h1v1h-1z"/><path fill="#598423" d="M12 6h1v1h-1z"/><path fill="#558124" d="M13 6h1v1h-1z"/><path fill="#507D25" d="M14 6h1v1h-1z"/><path fill="#0F380F" d="M15 6h1v1h-1zM0 7h1v1H0z"/><path fill="#82A716" d="M1 7h1v1H1z"/><path fill="#7EA317" d="M2 7h1v1H2z"/><path fill="#7AA019" d="M3 7h1v1H3z"/><path fill="#759C1A" d="M4 7h1v1H4z"/><path fill="#71991B" d="M5 7h1v1H5z"/><path fill="#6D951C" d="M6 7h1v1H6z"/><path fill="#69921E" d="M7 7h1v1H7z"/><path fill="#658F1F" d="M8 7h1v1H8z"/><path fill="#618B20" d="M9 7h1v1H9z"/><path fill="#5D8822" d="M10 7h1v1h-1z"/><path fill="#598423" d="M11 7h1v1h-1z"/><path fill="#558124" d="M12 7h1v1h-1z"/><path fill="#507D25" d="M13 7h1v1h-1z"/><path fill="#4C7A27" d="M14 7h1v1h-1z"/><path fill="#0F380F" d="M15 7h1v1h-1zM0 8h1v1H0z"/><path fill="#7EA317" d="M1 8h1v1H1z"/><path fill="#7AA019" d="M2 8h1v1H2z"/><path fill="#759C1A" d="M3 8h1v1H3z"/><path fill="#71991B" d="M4 8h1v1H4z"/><path fill="#6D951C" d="M5 8h1v1H5z"/><path fill="#69921E" d="M6 8h1v1H6z"/><path fill="#658F1F" d="M7 8h1v1H7z"/><path fill="#618B20" d="M8 8h1v1H8z"/><path fill="#5D8822" d="M9 8h1v1H9z"/><path fill="#598423" d="M10 8h1v1h-1z"/><path fill="#558124" d="M11 8h1v1h-1z"/><path fill="#507D25" d="M12 8h1v1h-1z"/><path fill="#4C7A27" d="M13 8h1v1h-1z"/><path fill="#487628" d="M14 8h1v1h-1z"/><path fill="#0F380F" d="M15 8h1v1h-1zM0 9h1v1H0z"/><path fill="#7AA019" d="M1 9h1v1H1z"/><path fill="#759C1A" d="M2 9h1v1H2z"/><path fill="#71991B" d="M3 9h1v1H3z"/><path fill="#6D951C" d="M4 9h1v1H4z"/><path fill="#69921E" d="M5 9h1v1H5z"/><path fill="#658F1F" d="M6 9h1v1H6z"/><path fill="#618B20" d="M7 9h1v1H7z"/><path fill="#5D8822" d="M8 9h1v1H8z"/><path fill="#598423" d="M9 9h1v1H9z"/><path fill="#558124" d="M10 9h1v1h-1z"/><path fill="#507D25" d="M11 9h1v1h-1z"/><path fill="#4C7A27" d="M12 9h1v1h-1z"/><path fill="#487628" d="M13 9h1v1h-1z"/><path fill="#447329" d="M14 9h1v1h-1z"/><path fill="#0F380F" d="M15 9h1v1h-1zM0 10h1v1H0z"/><path fill="#759C1A" d="M1 10h1v1H1z"/><path fill="#71991B" d="M2 10h1v1H2z"/><path fill="#6D951C" d="M3 10h1v1H3z"/><path fill="#69921E" d="M4 10h1v1H4z"/><path fill="#658F1F" d="M5 10h1v1H5z"/><path fill="#618B20" d="M6 10h1v1H6z"/><path fill="#5D8822" d="M7 10h1v1H7z"/><path fill="#598423" d="M8 10h1v1H8z"/><path fill="#558124" d="M9 10h1v1H9z"/><path fill="#507D25" d="M10 10h1v1h-1z"/><path fill="#4C7A27" d="M11 10h1v1h-1z"/><path fill="#487628" d="M12 10h1v1h-1z"/><path fill="#447329" d="M13 10h1v1h-1z"/><path fill="#406F2A" d="M14 10h1v1h-1z"/><path fill="#0F380F" d="M15 10h1v1h-1zM0 11h1v1H0z"/><path fill="#71991B" d="M1 11h1v1H1z"/><path fill="#6D951C" d="M2 11h1v1H2z"/><path fill="#69921E" d="M3 11h1v1H3z"/><path fill="#658F1F" d="M4 11h1v1H4z"/><path fill="#618B20" d="M5 11h1v1H5z"/><path fill="#5D8822" d="M6 11h1v1H6z"/><path fill="#598423" d="M7 11h1v1H7z"/><path fill="#558124" d="M8 11h1v1H8z"/><path fill="#507D25" d="M9 11h1v1H9z"/><path fill="#4C7A27" d="M10 11h1v1h-1z"/><path fill="#487628" d="M11 11h1v1h-1z"/><path fill="#447329" d="M12 11h1v1h-1z"/><path fill="#406F2A" d="M13 11h1v1h-1z"/><path fill="#3C6C2C" d="M14 11h1v1h-1z"/><path fill="#0F380F" d="M15 11h1v1h-1zM0 12h1v1H0z"/><path fill="#6D951C" d="M1 12h1v1H1z"/><path fill="#69921E" d="M2 12h1v1H2z"/><path fill="#658F1F" d="M3 12h1v1H3z"/><path fill="#618B20" d="M4 12h1v1H4z"/><path fill="#5D8822" d="M5 12h1v1H5z"/><path fill="#598423" d="M6 12h1v1H6z"/><path fill="#558124" d="M7 12h1v1H7z"/><path fill="#507D25" d="M8 12h1v1H8z"/><path fill="#4C7A27" d="M9 12h1v1H9z"/><path fill="#487628" d="M10 12h1v1h-1z"/><path fill="#447329" d="M11 12h1v1h-1z"/><path fill="#406F2A" d="M12 12h1v1h-1z"/><path fill="#3C6C2C" d="M13 12h1v1h-1z"/><path fill="#38682D" d="M14 12h1v1h-1z"/><path fill="#0F380F" d="M15 12h1v1h-1zM0 13h1v1H0z"/><path fill="#69921E" d="M1 13h1v1H1z"/><path fill="#658F1F" d="M2 13h1v1H2z"/><path fill="#618B20" d="M3 13h1v1H3z"/><path fill="#5D8822" d="M4 13h1v1H4z"/><path fill="#598423" d="M5 13h1v1H5z"/><path fill="#558124" d="M6 13h1v1H6z"/><path fill="#507D25" d="M7 13h1v1H7z"/><path fill="#4C7A27" d="M8 13h1v1H8z"/><path fill="#487628" d="M9 13h1v1H9z"/><path fill="#447329" d="M10 13h1v1h-1z"/><path fill="#406F2A" d="M11 13h1v1h-1z"/><path fill="#3C6C2C" d="M12 13h1v1h-1z"/><path fill="#38682D" d="M13 13h1v1h-1z"/><path fill="#34652E" d="M14 13h1v1h-1z"/><path fill="#0F380F" d="M15 13h1v1h-1zM0 14h1v1H0z"/><path fill="#658F1F" d="M1 14h1v1H1z"/><path fill="#618B20" d="M2 14h1v1H2z"/><path fill="#5D8822" d="M3 14h1v1H3z"/><path fill="#598423" d="M4 14h1v1H4z"/><path fill="#558124" d="M5 14h1v1H5z"/><path fill="#507D25" d="M6 14h1v1H6z"/><path fill="#4C7A27" d="M7 14h1v1H7z"/><path fill="#487628" d="M8 14h1v1H8z"/><path fill="#447329" d="M9 14h1v1H9z"/><path fill="#406F2A" d="M10 14h1v1h-1z"/><path fill="#3C6C2C" d="M11 14h1v1h-1z"/><path fill="#38682D" d="M12 14h1v1h-1z"/><path fill="#34652E" d="M13 14h1v1h-1z"/><path fill="#306230" d="M14 14h1v1h-1z"/><path fill="#0F380F" d="M15 14h1v1h-1zM0 15h1v1H0zm1 0h1v1H1zm1 0h1v1H2zm1 0h1v1H3zm1 0h1v1H4zm1 0h1v1H5zm1 0h1v1H6zm1 0h1v1H7zm1 0h1v1H8zm1 0h1v1H9zm1 0h1v1h-1zm1 0h1v1h-1zm1 0h1v1h-1zm1 0h1v1h-1zm1 0h1v1h-1zm1 0h1v1h-1zM0 16h1v1H0z"/><path fill="#9BBC0F" d="M1 16h1v1H1z"/><path fill="#97B810" d="M2 16h1v1H2z"/><path fill="#93B511" d="M3 16h1v1H3z"/><path fill="#8FB212" d="M4 16h1v1H4z"/><path fill="#8BAF13" d="M5 16h1v1H5z"/><path fill="#87AB14" d="M6 16h1v1H6z"/><path fill="#84A816" d="M7 16h1v1H7z"/><path fill="#80A517" d="M8 16h1v1H8z"/><path fill="#7CA218" d="M9 16h1v1H9z"/><path fill="#789F19" d="M10 16h1v1h-1z"/><path fill="#749B1A" d="M11 16h1v1h-1z"/><path fill="#71981B" d="M12 16h1v1h-1z"/><path fill="#6D951D" d="M13 16h1v1h-1z"/><path fill="#69921E" d="M14 16h1v1h-1z"/><path fill="#0F380F" d="M15 16h1v1h-1zM0 17h1v1H0z"/><path fill="#96B810" d="M1 17h1v1H1z"/><path fill="#93B511" d="M2 17h1v1H2z"/><path fill="#8FB212" d="M3 17h1v1H3z"/><path fill="#8BAE13" d="M4 17h1v1H4z"/><path fill="#87AB14" d="M5 17h1v1H5z"/><path fill="#83A816" d="M6 17h1v1H6z"/><path fill="#80A517" d="M7 17h1v1H7z"/><path fill="#7CA218" d="M8 17h1v1H8z"/><path fill="#789E19" d="M9 17h1v1H9z"/><path fill="#749B1A" d="M10 17h1v1h-1z"/><path fill="#70981C" d="M11 17h1v1h-1z"/><path fill="#6C951D" d="M12 17h1v1h-1z"/><path fill="#69921E" d="M13 17h1v1h-1z"/><path fill="#658E1F" d="M14 17h1v1h-1z"/><path fill="#0F380F" d="M15 17h1v1h-1zM0 18h1v1H0z"/><path fill="#92B511" d="M1 18h1v1H1z"/><path fill="#8EB112" d="M2 18h1v1H2z"/><path fill="#8BAE13" d="M3 18h1v1H3z"/><path fill="#87AB15" d="M4 18h1v1H4z"/><path fill="#83A816" d="M5 18h1v1H5z"/><path fill="#7FA517" d="M6 18h1v1H6z"/><path fill="#7BA118" d="M7 18h1v1H7z"/><path fill="#789E19" d="M8 18h1v1H8z"/><path fill="#749B1A" d="M9 18h1v1H9z"/><path fill="#70981C" d="M10 18h1v1h-1z"/><path fill="#6C951D" d="M11 18h1v1h-1z"/><path fill="#68911E" d="M12 18h1v1h-1z"/><path fill="#658E1F" d="M13 18h1v1h-1z"/><path fill="#618B20" d="M14 18h1v1h-1z"/><path fill="#0F380F" d="M15 18h1v1h-1zM0 19h1v1H0z"/><path fill="#8EB112" d="M1 19h1v1H1z"/><path fill="#8AAE13" d="M2 19h1v1H2z"/><path fill="#87AB15" d="M3 19h1v1H3z"/><path fill="#83A816" d="M4 19h1v1H4z"/><path fill="#7FA417" d="M5 19h1v1H5z"/><path fill="#7BA118" d="M6 19h1v1H6z"/><path fill="#779E19" d="M7 19h1v1H7z"/><path fill="#749B1B" d="M8 19h1v1H8z"/><path fill="#70981C" d="M9 19h1v1H9z"/><path fill="#6C941D" d="M10 19h1v1h-1z"/><path fill="#68911E" d="M11 19h1v1h-1z"/><path fill="#648E1F" d="M12 19h1v1h-1z"/><path fill="#608B20" d="M13 19h1v1h-1z"/><path fill="#5D8722" d="M14 19h1v1h-1z"/><path fill="#0F380F" d="M15 19h1v1h-1zM0 20h1v1H0z"/><path fill="#8AAE14" d="M1 20h1v1H1z"/><path fill="#86AA15" d="M2 20h1v1H2z"/><path fill="#82A716" d="M3 20h1v1H3z"/><path fill="#7FA417" d="M4 20h1v1H4z"/><path fill="#7BA118" d="M5 20h1v1H5z"/><path fill="#779E19" d="M6 20h1v1H6z"/><path fill="#739A1B" d="M7 20h1v1H7z"/><path fill="#6F971C" d="M8 20h1v1H8z"/><path fill="#6C941D" d="M9 20h1v1H9z"/><path fill="#68911E" d="M10 20h1v1h-1z"/><path fill="#648E1F" d="M11 20h1v1h-1z"/><path fill="#608A20" d="M12 20h1v1h-1z"/><path fill="#5C8722" d="M13 20h1v1h-1z"/><path fill="#598423" d="M14 20h1v1h-1z"/><path fill="#0F380F" d="M15 20h1v1h-1zM0 21h1v1H0z"/><path fill="#86AA15" d="M1 21h1v1H1z"/><path fill="#82A716" d="M2 21h1v1H2z"/><path fill="#7EA417" d="M3 21h1v1H3z"/><path fill="#7BA118" d="M4 21h1v1H4z"/><path fill="#779D1A" d="M5 21h1v1H5z"/><path fill="#739A1B" d="M6 21h1v1H6z"/><path fill="#6F971C" d="M7 21h1v1H7z"/><path fill="#6B941D" d="M8 21h1v1H8z"/><path fill="#67911E" d="M9 21h1v1H9z"/><path fill="#648D1F" d="M10 21h1v1h-1z"/><path fill="#608A21" d="M11 21h1v1h-1z"/><path fill="#5C8722" d="M12 21h1v1h-1z"/><path fill="#588423" d="M13 21h1v1h-1z"/><path fill="#548124" d="M14 21h1v1h-1z"/><path fill="#0F380F" d="M15 21h1v1h-1zM0 22h1v1H0z"/><path fill="#82A716" d="M1 22h1v1H1z"/><path fill="#7EA417" d="M2 22h1v1H2z"/><path fill="#7AA018" d="M3 22h1v1H3z"/><path fill="#769D1A" d="M4 22h1v1H4z"/><path fill="#739A1B" d="M5 22h1v1H5z"/><path fill="#6F971C" d="M6 22h1v1H6z"/><path fill="#6B941D" d="M7 22h1v1H7z"/><path fill="#67901E" d="M8 22h1v1H8z"/><path fill="#638D1F" d="M9 22h1v1H9z"/><path fill="#608A21" d="M10 22h1v1h-1z"/><path fill="#5C8722" d="M11 22h1v1h-1z"/><path fill="#588423" d="M12 22h1v1h-1z"/><path fill="#548024" d="M13 22h1v1h-1z"/><path fill="#507D25" d="M14 22h1v1h-1z"/><path fill="#0F380F" d="M15 22h1v1h-1zM0 23h1v1H0z"/><path fill="#7EA317" d="M1 23h1v1H1z"/><path fill="#7AA019" d="M2 23h1v1H2z"/><path fill="#769D1A" d="M3 23h1v1H3z"/><path fill="#729A1B" d="M4 23h1v1H4z"/><path fill="#6F971C" d="M5 23h1v1H5z"/><path fill="#6B931D" d="M6 23h1v1H6z"/><path fill="#67901E" d="M7 23h1v1H7z"/><path fill="#638D20" d="M8 23h1v1H8z"/><path fill="#5F8A21" d="M9 23h1v1H9z"/><path fill="#5B8622" d="M10 23h1v1h-1z"/><path fill="#588323" d="M11 23h1v1h-1z"/><path fill="#548024" d="M12 23h1v1h-1z"/><path fill="#507D25" d="M13 23h1v1h-1z"/><path fill="#4C7A27" d="M14 23h1v1h-1z"/><path fill="#0F380F" d="M15 23h1v1h-1zM0 24h1v1H0z"/><path fill="#7AA019" d="M1 24h1v1H1z"/><path fill="#769D1A" d="M2 24h1v1H2z"/><path fill="#72991B" d="M3 24h1v1H3z"/><path fill="#6E961C" d="M4 24h1v1H4z"/><path fill="#6A931D" d="M5 24h1v1H5z"/><path fill="#67901F" d="M6 24h1v1H6z"/><path fill="#638D20" d="M7 24h1v1H7z"/><path fill="#5F8921" d="M8 24h1v1H8z"/><path fill="#5B8622" d="M9 24h1v1H9z"/><path fill="#578323" d="M10 24h1v1h-1z"/><path fill="#548024" d="M11 24h1v1h-1z"/><path fill="#507D26" d="M12 24h1v1h-1z"/><path fill="#4C7927" d="M13 24h1v1h-1z"/><path fill="#487628" d="M14 24h1v1h-1z"/><path fill="#0F380F" d="M15 24h1v1h-1zM0 25h1v1H0z"/><path fill="#769C1A" d="M1 25h1v1H1z"/><path fill="#72991B" d="M2 25h1v1H2z"/><path fill="#6E961C" d="M3 25h1v1H3z"/><path fill="#6A931D" d="M4 25h1v1H4z"/><path fill="#66901F" d="M5 25h1v1H5z"/><path fill="#638C20" d="M6 25h1v1H6z"/><path fill="#5F8921" d="M7 25h1v1H7z"/><path fill="#5B8622" d="M8 25h1v1H8z"/><path fill="#578323" d="M9 25h1v1H9z"/><path fill="#538024" d="M10 25h1v1h-1z"/><path fill="#4F7C26" d="M11 25h1v1h-1z"/><path fill="#4C7927" d="M12 25h1v1h-1z"/><path fill="#487628" d="M13 25h1v1h-1z"/><path fill="#447329" d="M14 25h1v1h-1z"/><path fill="#0F380F" d="M15 25h1v1h-1zM0 26h1v1H0z"/><path fill="#71991B" d="M1 26h1v1H1z"/><path fill="#6E961C" d="M2 26h1v1H2z"/><path fill="#6A931E" d="M3 26h1v1H3z"/><path fill="#668F1F" d="M4 26h1v1H4z"/><path fill="#628C20" d="M5 26h1v1H5z"/><path fill="#5E8921" d="M6 26h1v1H6z"/><path fill="#5B8622" d="M7 26h1v1H7z"/><path fill="#578323" d="M8 26h1v1H8z"/><path fill="#537F25" d="M9 26h1v1H9z"/><path fill="#4F7C26" d="M10 26h1v1h-1z"/><path fill="#4B7927" d="M11 26h1v1h-1z"/><path fill="#487628" d="M12 26h1v1h-1z"/><path fill="#447329" d="M13 26h1v1h-1z"/><path fill="#406F2A" d="M14 26h1v1h-1z"/><path fill="#0F380F" d="M15 26h1v1h-1zM0 27h1v1H0z"/><path fill="#6D961C" d="M1 27h1v1H1z"/><path fill="#6A921E" d="M2 27h1v1H2z"/><path fill="#668F1F" d="M3 27h1v1H3z"/><path fill="#628C20" d="M4 27h1v1H4z"/><path fill="#5E8921" d="M5 27h1v1H5z"/><path fill="#5A8622" d="M6 27h1v1H6z"/><path fill="#568223" d="M7 27h1v1H7z"/><path fill="#537F25" d="M8 27h1v1H8z"/><path fill="#4F7C26" d="M9 27h1v1H9z"/><path fill="#4B7927" d="M10 27h1v1h-1z"/><path fill="#477528" d="M11 27h1v1h-1z"/><path fill="#437229" d="M12 27h1v1h-1z"/><path fill="#406F2B" d="M13 27h1v1h-1z"/><path fill="#3C6C2C" d="M14 27h1v1h-1z"/><path fill="#0F380F" d="M15 27h1v1h-1zM0 28h1v1H0z"/><path fill="#69921E" d="M1 28h1v1H1z"/><path fill="#658F1F" d="M2 28h1v1H2z"/><path fill="#628C20" d="M3 28h1v1H3z"/><path fill="#5E8821" d="M4 28h1v1H4z"/><path fill="#5A8522" d="M5 28h1v1H5z"/><path fill="#568224" d="M6 28h1v1H6z"/><path fill="#527F25" d="M7 28h1v1H7z"/><path fill="#4F7C26" d="M8 28h1v1H8z"/><path fill="#4B7827" d="M9 28h1v1H9z"/><path fill="#477528" d="M10 28h1v1h-1z"/><path fill="#437229" d="M11 28h1v1h-1z"/><path fill="#3F6F2B" d="M12 28h1v1h-1z"/><path fill="#3C6C2C" d="M13 28h1v1h-1z"/><path fill="#38682D" d="M14 28h1v1h-1z"/><path fill="#0F380F" d="M15 28h1v1h-1zM0 29h1v1H0z"/><path fill="#658F1F" d="M1 29h1v1H1z"/><path fill="#618B20" d="M2 29h1v1H2z"/><path fill="#5E8821" d="M3 29h1v1H3z"/><path fill="#5A8522" d="M4 29h1v1H4z"/><path fill="#568224" d="M5 29h1v1H5z"/><path fill="#527F25" d="M6 29h1v1H6z"/><path fill="#4E7B26" d="M7 29h1v1H7z"/><path fill="#4A7827" d="M8 29h1v1H8z"/><path fill="#477528" d="M9 29h1v1H9z"/><path fill="#43722A" d="M10 29h1v1h-1z"/><path fill="#3F6F2B" d="M11 29h1v1h-1z"/><path fill="#3B6B2C" d="M12 29h1v1h-1z"/><path fill="#37682D" d="M13 29h1v1h-1z"/><path fill="#34652E" d="M14 29h1v1h-1z"/><path fill="#0F380F" d="M15 29h1v1h-1zM0 30h1v1H0z"/><path fill="#618B20" d="M1 30h1v1H1z"/><path fill="#5D8821" d="M2 30h1v1H2z"/><path fill="#598523" d="M3 30h1v1H3z"/><path fill="#568224" d="M4 30h1v1H4z"/><path fill="#527E25" d="M5 30h1v1H5z"/><path fill="#4E7B26" d="M6 30h1v1H6z"/><path fill="#4A7827" d="M7 30h1v1H7z"/><path fill="#467528" d="M8 30h1v1H8z"/><path fill="#43722A" d="M9 30h1v1H9z"/><path fill="#3F6E2B" d="M10 30h1v1h-1z"/><path fill="#3B6B2C" d="M11 30h1v1h-1z"/><path fill="#37682D" d="M12 30h1v1h-1z"/><path fill="#33652E" d="M13 30h1v1h-1z"/><path fill="#306230" d="M14 30h1v1h-1z"/><path fill="#0F380F" d="M15 30h1v1h-1zM0 31h1v1H0zm1 0h1v1H1zm1 0h1v1H2zm1 0h1v1H3zm1 0h1v1H4zm1 0h1v1H5zm1 0h1v1H6zm1 0h1v1H7zm1 0h1v1H8zm1 0h1v1H9zm1 0h1v1h-1zm1 0h1v1h-1zm1 0h1v1h-1zm1 0h1v1h-1zm1 0h1v1h-1zm1 0h1v1h-1zM0 32h1v1H0z"/><path fill="#9BBC0F" d="M1 32h1v1H1zm1 0h1v1H2z"/><path fill="#96B810" d="M3 32h1v1H3z"/><path fill="#92B511" d="M4 32h1v1H4z"/><path fill="#8EB112" d="M5 32h1v1H5z"/><path fill="#8AAE14" d="M6 32h1v1H6z"/><path fill="#86AA15" d="M7 32h1v1H7z"/><path fill="#82A716" d="M8 32h1v1H8z"/><path fill="#7EA317" d="M9 32h1v1H9z"/><path fill="#7AA019" d="M10 32h1v1h-1z"/><path fill="#759C1A" d="M11 32h1v1h-1z"/><path fill="#71991B" d="M12 32h1v1h-1z"/><path fill="#6D951C" d="M13 32h1v1h-1z"/><path fill="#69921E" d="M14 32h1v1h-1z"/><path fill="#0F380F" d="M15 32h1v1h-1zM0 33h1v1H0z"/><path fill="#9BBC0F" d="M1 33h1v1H1z"/><path fill="#96B810" d="M2 33h1v1H2z"/><path fill="#92B511" d="M3 33h1v1H3z"/><path fill="#8EB112" d="M4 33h1v1H4z"/><path fill="#8AAE14" d="M5 33h1v1H5z"/><path fill="#86AA15" d="M6 33h1v1H6z"/><path fill="#82A716" d="M7 33h1v1H7z"/><path fill="#7EA317" d="M8 33h1v1H8z"/><path fill="#7AA019" d="M9 33h1v1H9z"/><path fill="#759C1A" d="M10 33h1v1h-1z"/><path fill="#71991B" d="M11 33h1v1h-1z"/><path fill="#6D951C" d="M12 33h1v1h-1z"/><path fill="#69921E" d="M13 33h1v1h-1z"/><path fill="#658F1F" d="M14 33h1v1h-1z"/><path fill="#0F380F" d="M15 33h1v1h-1zM0 34h1v1H0z"/><path fill="#96B810" d="M1 34h1v1H1z"/><path fill="#92B511" d="M2 34h1v1H2z"/><path fill="#8EB112" d="M3 34h1v1H3z"/><path fill="#8AAE14" d="M4 34h1v1H4z"/><path fill="#86AA15" d="M5 34h1v1H5z"/><path fill="#82A716" d="M6 34h1v1H6z"/><path fill="#7EA317" d="M7 34h1v1H7z"/><path fill="#7AA019" d="M8 34h1v1H8z"/><path fill="#759C1A" d="M9 34h1v1H9z"/><path fill="#71991B" d="M10 34h1v1h-1z"/><path fill="#6D951C" d="M11 34h1v1h-1z"/><path fill="#69921E" d="M12 34h1v1h-1z"/><path fill="#658F1F" d="M13 34h1v1h-1z"/><path fill="#618B20" d="M14 34h1v1h-1z"/><path fill="#0F380F" d="M15 34h1v1h-1zM0 35h1v1H0z"/><path fill="#92B511" d="M1 35h1v1H1z"/><path fill="#8EB112" d="M2 35h1v1H2z"/><path fill="#8AAE14" d="M3 35h1v1H3z"/><path fill="#86AA15" d="M4 35h1v1H4z"/><path fill="#82A716" d="M5 35h1v1H5z"/><path fill="#7EA317" d="M6 35h1v1H6z"/><path fill="#7AA019" d="M7 35h1v1H7z"/><path fill="#759C1A" d="M8 35h1v1H8z"/><path fill="#71991B" d="M9 35h1v1H9z"/><path fill="#6D951C" d="M10 35h1v1h-1z"/><path fill="#69921E" d="M11 35h1v1h-1z"/><path fill="#658F1F" d="M12 35h1v1h-1z"/><path fill="#618B20" d="M13 35h1v1h-1z"/><path fill="#5D8822" d="M14 35h1v1h-1z"/><path fill="#0F380F" d="M15 35h1v1h-1zM0 36h1v1H0z"/><path fill="#8EB112" d="M1 36h1v1H1z"/><path fill="#8AAE14" d="M2 36h1v1H2z"/><path fill="#86AA15" d="M3 36h1v1H3z"/><path fill="#82A716" d="M4 36h1v1H4z"/><path fill="#7EA317" d="M5 36h1v1H5z"/><path fill="#7AA019" d="M6 36h1v1H6z"/><path fill="#759C1A" d="M7 36h1v1H7z"/><path fill="#71991B" d="M8 36h1v1H8z"/><path fill="#6D951C" d="M9 36h1v1H9z"/><path fill="#69921E" d="M10 36h1v1h-1z"/><path fill="#658F1F" d="M11 36h1v1h-1z"/><path fill="#618B20" d="M12 36h1v1h-1z"/><path fill="#5D8822" d="M13 36h1v1h-1z"/><path fill="#598423" d="M14 36h1v1h-1z"/><path fill="#0F380F" d="M15 36h1v1h-1zM0 37h1v1H0z"/><path fill="#8AAE14" d="M1 37h1v1H1z"/><path fill="#86AA15" d="M2 37h1v1H2z"/><path fill="#82A716" d="M3 37h1v1H3z"/><path fill="#7EA317" d="M4 37h1v1H4z"/><path fill="#7AA019" d="M5 37h1v1H5z"/><path fill="#759C1A" d="M6 37h1v1H6z"/><path fill="#71991B" d="M7 37h1v1H7z"/><path fill="#6D951C" d="M8 37h1v1H8z"/><path fill="#69921E" d="M9 37h1v1H9z"/><path fill="#658F1F" d="M10 37h1v1h-1z"/><path fill="#618B20" d="M11 37h1v1h-1z"/><path fill="#5D8822" d="M12 37h1v1h-1z"/><path fill="#598423" d="M13 37h1v1h-1z"/><path fill="#558124" d="M14 37h1v1h-1z"/><path fill="#0F380F" d="M15 37h1v1h-1zM0 38h1v1H0z"/><path fill="#86AA15" d="M1 38h1v1H1z"/><path fill="#82A716" d="M2 38h1v1H2z"/><path fill="#7EA317" d="M3 38h1v1H3z"/><path fill="#7AA019" d="M4 38h1v1H4z"/><path fill="#759C1A" d="M5 38h1v1H5z"/><path fill="#71991B" d="M6 38h1v1H6z"/><path fill="#6D951C" d="M7 38h1v1H7z"/><path fill="#69921E" d="M8 38h1v1H8z"/><path fill="#658F1F" d="M9 38h1v1H9z"/><path fill="#618B20" d="M10 38h1v1h-1z"/><path fill="#5D8822" d="M11 38h1v1h-1z"/><path fill="#598423" d="M12 38h1v1h-1z"/><path fill="#558124" d="M13 38h1v1h-1z"/><path fill="#507D25" d="M14 38h1v1h-1z"/><path fill="#0F380F" d="M15 38h1v1h-1zM0 39h1v1H0z"/><path fill="#82A716" d="M1 39h1v1H1z"/><path fill="#7EA317" d="M2 39h1v1H2z"/><path fill="#7AA019" d="M3 39h1v1H3z"/><path fill="#759C1A" d="M4 39h1v1H4z"/><path fill="#71991B" d="M5 39h1v1H5z"/><path fill="#6D951C" d="M6 39h1v1H6z"/><path fill="#69921E" d="M7 39h1v1H7z"/><path fill="#658F1F" d="M8 39h1v1H8z"/><path fill="#618B20" d="M9 39h1v1H9z"/><path fill="#5D8822" d="M10 39h1v1h-1z"/><path fill="#598423" d="M11 39h1v1h-1z"/><path fill="#558124" d="M12 39h1v1h-1z"/><path fill="#507D25" d="M13 39h1v1h-1z"/><path fill="#4C7A27" d="M14 39h1v1h-1z"/><path fill="#0F380F" d="M15 39h1v1h-1zM0 40h1v1H0z"/><path fill="#7EA317" d="M1 40h1v1H1z"/><path fill="#7AA019" d="M2 40h1v1H2z"/><path fill="#759C1A" d="M3 40h1v1H3z"/><path fill="#71991B" d="M4 40h1v1H4z"/><path fill="#6D951C" d="M5 40h1v1H5z"/><path fill="#69921E" d="M6 40h1v1H6z"/><path fill="#658F1F" d="M7 40h1v1H7z"/><path fill="#618B20" d="M8 40h1v1H8z"/><path fill="#5D8822" d="M9 40h1v1H9z"/><path fill="#598423" d="M10 40h1v1h-1z"/><path fill="#558124" d="M11 40h1v1h-1z"/><path fill="#507D25" d="M12 40h1v1h-1z"/><path fill="#4C7A27" d="M13 40h1v1h-1z"/><path fill="#487628" d="M14 40h1v1h-1z"/><path fill="#0F380F" d="M15 40h1v1h-1zM0 41h1v1H0z"/><path fill="#7AA019" d="M1 41h1v1H1z"/><path fill="#759C1A" d="M2 41h1v1H2z"/><path fill="#71991B" d="M3 41h1v1H3z"/><path fill="#6D951C" d="M4 41h1v1H4z"/><path fill="#69921E" d="M5 41h1v1H5z"/><path fill="#658F1F" d="M6 41h1v1H6z"/><path fill="#618B20" d="M7 41h1v1H7z"/><path fill="#5D8822" d="M8 41h1v1H8z"/><path fill="#598423" d="M9 41h1v1H9z"/><path fill="#558124" d="M10 41h1v1h-1z"/><path fill="#507D25" d="M11 41h1v1h-1z"/><path fill="#4C7A27" d="M12 41h1v1h-1z"/><path fill="#487628" d="M13 41h1v1h-1z"/><path fill="#447329" d="M14 41h1v1h-1z"/><path fill="#0F380F" d="M15 41h1v1h-1zM0 42h1v1H0z"/><path fill="#759C1A" d="M1 42h1v1H1z"/><path fill="#71991B" d="M2 42h1v1H2z"/><path fill="#6D951C" d="M3 42h1v1H3z"/><path fill="#69921E" d="M4 42h1v1H4z"/><path fill="#658F1F" d="M5 42h1v1H5z"/><path fill="#618B20" d="M6 42h1v1H6z"/><path fill="#5D8822" d="M7 42h1v1H7z"/><path fill="#598423" d="M8 42h1v1H8z"/><path fill="#558124" d="M9 42h1v1H9z"/><path fill="#507D25" d="M10 42h1v1h-1z"/><path fill="#4C7A27" d="M11 42h1v1h-1z"/><path fill="#487628" d="M12 42h1v1h-1z"/><path fill="#447329" d="M13 42h1v1h-1z"/><path fill="#406F2A" d="M14 42h1v1h-1z"/><path fill="#0F380F" d="M15 42h1v1h-1zM0 43h1v1H0z"/><path fill="#71991B" d="M1 43h1v1H1z"/><path fill="#6D951C" d="M2 43h1v1H2z"/><path fill="#69921E" d="M3 43h1v1H3z"/><path fill="#658F1F" d="M4 43h1v1H4z"/><path fill="#618B20" d="M5 43h1v1H5z"/><path fill="#5D8822" d="M6 43h1v1H6z"/><path fill="#598423" d="M7 43h1v1H7z"/><path fill="#558124" d="M8 43h1v1H8z"/><path fill="#507D25" d="M9 43h1v1H9z"/><path fill="#4C7A27" d="M10 43h1v1h-1z"/><path fill="#487628" d="M11 43h1v1h-1z"/><path fill="#447329" d="M12 43h1v1h-1z"/><path fill="#406F2A" d="M13 43h1v1h-1z"/><path fill="#3C6C2C" d="M14 43h1v1h-1z"/><path fill="#0F380F" d="M15 43h1v1h-1zM0 44h1v1H0z"/><path fill="#6D951C" d="M1 44h1v1H1z"/><path fill="#69921E" d="M2 44h1v1H2z"/><path fill="#658F1F" d="M3 44h1v1H3z"/><path fill="#618B20" d="M4 44h1v1H4z"/><path fill="#5D8822" d="M5 44h1v1H5z"/><path fill="#598423" d="M6 44h1v1H6z"/><path fill="#558124" d="M7 44h1v1H7z"/><path fill="#507D25" d="M8 44h1v1H8z"/><path fill="#4C7A27" d="M9 44h1v1H9z"/><path fill="#487628" d="M10 44h1v1h-1z"/><path fill="#447329" d="M11 44h1v1h-1z"/><path fill="#406F2A" d="M12 44h1v1h-1z"/><path fill="#3C6C2C" d="M13 44h1v1h-1z"/><path fill="#38682D" d="M14 44h1v1h-1z"/><path fill="#0F380F" d="M15 44h1v1h-1zM0 45h1v1H0z"/><path fill="#69921E" d="M1 45h1v1H1z"/><path fill="#658F1F" d="M2 45h1v1H2z"/><path fill="#618B20" d="M3 45h1v1H3z"/><path fill="#5D8822" d="M4 45h1v1H4z"/><path fill="#598423" d="M5 45h1v1H5z"/><path fill="#558124" d="M6 45h1v1H6z"/><path fill="#507D25" d="M7 45h1v1H7z"/><path fill="#4C7A27" d="M8 45h1v1H8z"/><path fill="#487628" d="M9 45h1v1H9z"/><path fill="#447329" d="M10 45h1v1h-1z"/><path fill="#406F2A" d="M11 45h1v1h-1z"/><path fill="#3C6C2C" d="M12 45h1v1h-1z"/><path fill="#38682D" d="M13 45h1v1h-1z"/><path fill="#34652E" d="M14 45h1v1h-1z"/><path fill="#0F380F" d="M15 45h1v1h-1zM0 46h1v1H0z"/><path fill="#658F1F" d="M1 46h1v1H1z"/><path fill="#618B20" d="M2 46h1v1H2z"/><path fill="#5D8822" d="M3 46h1v1H3z"/><path fill="#598423" d="M4 46h1v1H4z"/><path fill="#558124" d="M5 46h1v1H5z"/><path fill="#507D25" d="M6 46h1v1H6z"/><path fill="#4C7A27" d="M7 46h1v1H7z"/><path fill="#487628" d="M8 46h1v1H8z"/><path fill="#447329" d="M9 46h1v1H9z"/><path fill="#406F2A" d="M10 46h1v1h-1z"/><path fill="#3C6C2C" d="M11 46h1v1h-1z"/><path fill="#38682D" d="M12 46h1v1h-1z"/><path fill="#34652E" d="M13 46h1v1h-1z"/><path fill="#306230" d="M14 46h1v1h-1z"/><path fill="#0F380F" d="M15 46h1v1h-1zM0 47h1v1H0zm1 0h1v1H1zm1 0h1v1H2zm1 0h1v1H3zm1 0h1v1H4zm1 0h1v1H5zm1 0h1v1H6zm1 0h1v1H7zm1 0h1v1H8zm1 0h1v1H9zm1 0h1v1h-1zm1 0h1v1h-1zm1 0h1v1h-1zm1 0h1v1h-1zm1 0h1v1h-1zm1 0h1v1h-1zM0 48h1v1H0z"/><path fill="#9BBC0F" d="M1 48h1v1H1zm1 0h1v1H2z"/><path fill="#96B810" d="M3 48h1v1H3z"/><path fill="#92B511" d="M4 48h1v1H4z"/><path fill="#8EB112" d="M5 48h1v1H5z"/><path fill="#8AAE14" d="M6 48h1v1H6z"/><path fill="#86AA15" d="M7 48h1v1H7z"/><path fill="#82A716" d="M8 48h1v1H8z"/><path fill="#7EA317" d="M9 48h1v1H9z"/><path fill="#7AA019" d="M10 48h1v1h-1z"/><path fill="#759C1A" d="M11 48h1v1h-1z"/><path fill="#71991B" d="M12 48h1v1h-1z"/><path fill="#6D951C" d="M13 48h1v1h-1z"/><path fill="#69921E" d="M14 48h1v1h-1z"/><path fill="#0F380F" d="M15 48h1v1h-1zM0 49h1v1H0z"/><path fill="#9BBC0F" d="M1 49h1v1H1z"/><path fill="#96B810" d="M2 49h1v1H2z"/><path fill="#92B511" d="M3 49h1v1H3z"/><path fill="#8EB112" d="M4 49h1v1H4z"/><path fill="#8AAE14" d="M5 49h1v1H5z"/><path fill="#86AA15" d="M6 49h1v1H6z"/><path fill="#82A716" d="M7 49h1v1H7z"/><path fill="#7EA317" d="M8 49h1v1H8z"/><path fill="#7AA019" d="M9 49h1v1H9z"/><path fill="#759C1A" d="M10 49h1v1h-1z"/><path fill="#71991B" d="M11 49h1v1h-1z"/><path fill="#6D951C" d="M12 49h1v1h-1z"/><path fill="#69921E" d="M13 49h1v1h-1z"/><path fill="#658F1F" d="M14 49h1v1h-1z"/><path fill="#0F380F" d="M15 49h1v1h-1zM0 50h1v1H0z"/><path fill="#96B810" d="M1 50h1v1H1z"/><path fill="#92B511" d="M2 50h1v1H2z"/><path fill="#8EB112" d="M3 50h1v1H3z"/><path fill="#8AAE14" d="M4 50h1v1H4z"/><path fill="#86AA15" d="M5 50h1v1H5z"/><path fill="#82A716" d="M6 50h1v1H6z"/><path fill="#7EA317" d="M7 50h1v1H7z"/><path fill="#7AA019" d="M8 50h1v1H8z"/><path fill="#759C1A" d="M9 50h1v1H9z"/><path fill="#71991B" d="M10 50h1v1h-1z"/><path fill="#6D951C" d="M11 50h1v1h-1z"/><path fill="#69921E" d="M12 50h1v1h-1z"/><path fill="#658F1F" d="M13 50h1v1h-1z"/><path fill="#618B20" d="M14 50h1v1h-1z"/><path fill="#0F380F" d="M15 50h1v1h-1zM0 51h1v1H0z"/><path fill="#92B511" d="M1 51h1v1H1z"/><path fill="#8EB112" d="M2 51h1v1H2z"/><path fill="#8AAE14" d="M3 51h1v1H3z"/><path fill="#86AA15" d="M4 51h1v1H4z"/><path fill="#82A716" d="M5 51h1v1H5z"/><path fill="#7EA317" d="M6 51h1v1H6z"/><path fill="#7AA019" d="M7 51h1v1H7z"/><path fill="#759C1A" d="M8 51h1v1H8z"/><path fill="#71991B" d="M9 51h1v1H9z"/><path fill="#6D951C" d="M10 51h1v1h-1z"/><path fill="#69921E" d="M11 51h1v1h-1z"/><path fill="#658F1F" d="M12 51h1v1h-1z"/><path fill="#618B20" d="M13 51h1v1h-1z"/><path fill="#5D8822" d="M14 51h1v1h-1z"/><path fill="#0F380F" d="M15 51h1v1h-1zM0 52h1v1H0z"/><path fill="#8EB112" d="M1 52h1v1H1z"/><path fill="#8AAE14" d="M2 52h1v1H2z"/><path fill="#86AA15" d="M3 52h1v1H3z"/><path fill="#82A716" d="M4 52h1v1H4z"/><path fill="#7EA317" d="M5 52h1v1H5z"/><path fill="#7AA019" d="M6 52h1v1H6z"/><path fill="#759C1A" d="M7 52h1v1H7z"/><path fill="#71991B" d="M8 52h1v1H8z"/><path fill="#6D951C" d="M9 52h1v1H9z"/><path fill="#69921E" d="M10 52h1v1h-1z"/><path fill="#658F1F" d="M11 52h1v1h-1z"/><path fill="#618B20" d="M12 52h1v1h-1z"/><path fill="#5D8822" d="M13 52h1v1h-1z"/><path fill="#598423" d="M14 52h1v1h-1z"/><path fill="#0F380F" d="M15 52h1v1h-1zM0 53h1v1H0z"/><path fill="#8AAE14" d="M1 53h1v1H1z"/><path fill="#86AA15" d="M2 53h1v1H2z"/><path fill="#82A716" d="M3 53h1v1H3z"/><path fill="#7EA317" d="M4 53h1v1H4z"/><path fill="#7AA019" d="M5 53h1v1H5z"/><path fill="#759C1A" d="M6 53h1v1H6z"/><path fill="#71991B" d="M7 53h1v1H7z"/><path fill="#6D951C" d="M8 53h1v1H8z"/><path fill="#69921E" d="M9 53h1v1H9z"/><path fill="#658F1F" d="M10 53h1v1h-1z"/><path fill="#618B20" d="M11 53h1v1h-1z"/><path fill="#5D8822" d="M12 53h1v1h-1z"/><path fill="#598423" d="M13 53h1v1h-1z"/><path fill="#558124" d="M14 53h1v1h-1z"/><path fill="#0F380F" d="M15 53h1v1h-1zM0 54h1v1H0z"/><path fill="#86AA15" d="M1 54h1v1H1z"/><path fill="#82A716" d="M2 54h1v1H2z"/><path fill="#7EA317" d="M3 54h1v1H3z"/><path fill="#7AA019" d="M4 54h1v1H4z"/><path fill="#759C1A" d="M5 54h1v1H5z"/><path fill="#71991B" d="M6 54h1v1H6z"/><path fill="#6D951C" d="M7 54h1v1H7z"/><path fill="#69921E" d="M8 54h1v1H8z"/><path fill="#658F1F" d="M9 54h1v1H9z"/><path fill="#618B20" d="M10 54h1v1h-1z"/><path fill="#5D8822" d="M11 54h1v1h-1z"/><path fill="#598423" d="M12 54h1v1h-1z"/><path fill="#558124" d="M13 54h1v1h-1z"/><path fill="#507D25" d="M14 54h1v1h-1z"/><path fill="#0F380F" d="M15 54h1v1h-1zM0 55h1v1H0z"/><path fill="#82A716" d="M1 55h1v1H1z"/><path fill="#7EA317" d="M2 55h1v1H2z"/><path fill="#7AA019" d="M3 55h1v1H3z"/><path fill="#759C1A" d="M4 55h1v1H4z"/><path fill="#71991B" d="M5 55h1v1H5z"/><path fill="#6D951C" d="M6 55h1v1H6z"/><path fill="#69921E" d="M7 55h1v1H7z"/><path fill="#658F1F" d="M8 55h1v1H8z"/><path fill="#618B20" d="M9 55h1v1H9z"/><path fill="#5D8822" d="M10 55h1v1h-1z"/><path fill="#598423" d="M11 55h1v1h-1z"/><path fill="#558124" d="M12 55h1v1h-1z"/><path fill="#507D25" d="M13 55h1v1h-1z"/><path fill="#4C7A27" d="M14 55h1v1h-1z"/><path fill="#0F380F" d="M15 55h1v1h-1zM0 56h1v1H0z"/><path fill="#7EA317" d="M1 56h1v1H1z"/><path fill="#7AA019" d="M2 56h1v1H2z"/><path fill="#759C1A" d="M3 56h1v1H3z"/><path fill="#71991B" d="M4 56h1v1H4z"/><path fill="#6D951C" d="M5 56h1v1H5z"/><path fill="#69921E" d="M6 56h1v1H6z"/><path fill="#658F1F" d="M7 56h1v1H7z"/><path fill="#618B20" d="M8 56h1v1H8z"/><path fill="#5D8822" d="M9 56h1v1H9z"/><path fill="#598423" d="M10 56h1v1h-1z"/><path fill="#558124" d="M11 56h1v1h-1z"/><path fill="#507D25" d="M12 56h1v1h-1z"/><path fill="#4C7A27" d="M13 56h1v1h-1z"/><path fill="#487628" d="M14 56h1v1h-1z"/><path fill="#0F380F" d="M15 56h1v1h-1zM0 57h1v1H0z"/><path fill="#7AA019" d="M1 57h1v1H1z"/><path fill="#759C1A" d="M2 57h1v1H2z"/><path fill="#71991B" d="M3 57h1v1H3z"/><path fill="#6D951C" d="M4 57h1v1H4z"/><path fill="#69921E" d="M5 57h1v1H5z"/><path fill="#658F1F" d="M6 57h1v1H6z"/><path fill="#618B20" d="M7 57h1v1H7z"/><path fill="#5D8822" d="M8 57h1v1H8z"/><path fill="#598423" d="M9 57h1v1H9z"/><path fill="#558124" d="M10 57h1v1h-1z"/><path fill="#507D25" d="M11 57h1v1h-1z"/><path fill="#4C7A27" d="M12 57h1v1h-1z"/><path fill="#487628" d="M13 57h1v1h-1z"/><path fill="#447329" d="M14 57h1v1h-1z"/><path fill="#0F380F" d="M15 57h1v1h-1zM0 58h1v1H0z"/><path fill="#759C1A" d="M1 58h1v1H1z"/><path fill="#71991B" d="M2 58h1v1H2z"/><path fill="#6D951C" d="M3 58h1v1H3z"/><path fill="#69921E" d="M4 58h1v1H4z"/><path fill="#658F1F" d="M5 58h1v1H5z"/><path fill="#618B20" d="M6 58h1v1H6z"/><path fill="#5D8822" d="M7 58h1v1H7z"/><path fill="#598423" d="M8 58h1v1H8z"/><path fill="#558124" d="M9 58h1v1H9z"/><path fill="#507D25" d="M10 58h1v1h-1z"/><path fill="#4C7A27" d="M11 58h1v1h-1z"/><path fill="#487628" d="M12 58h1v1h-1z"/><path fill="#447329" d="M13 58h1v1h-1z"/><path fill="#406F2A" d="M14 58h1v1h-1z"/><path fill="#0F380F" d="M15 58h1v1h-1zM0 59h1v1H0z"/><path fill="#71991B" d="M1 59h1v1H1z"/><path fill="#6D951C" d="M2 59h1v1H2z"/><path fill="#69921E" d="M3 59h1v1H3z"/><path fill="#658F1F" d="M4 59h1v1H4z"/><path fill="#618B20" d="M5 59h1v1H5z"/><path fill="#5D8822" d="M6 59h1v1H6z"/><path fill="#598423" d="M7 59h1v1H7z"/><path fill="#558124" d="M8 59h1v1H8z"/><path fill="#507D25" d="M9 59h1v1H9z"/><path fill="#4C7A27" d="M10 59h1v1h-1z"/><path fill="#487628" d="M11 59h1v1h-1z"/><path fill="#447329" d="M12 59h1v1h-1z"/><path fill="#406F2A" d="M13 59h1v1h-1z"/><path fill="#3C6C2C" d="M14 59h1v1h-1z"/><path fill="#0F380F" d="M15 59h1v1h-1zM0 60h1v1H0z"/><path fill="#6D951C" d="M1 60h1v1H1z"/><path fill="#69921E" d="M2 60h1v1H2z"/><path fill="#658F1F" d="M3 60h1v1H3z"/><path fill="#618B20" d="M4 60h1v1H4z"/><path fill="#5D8822" d="M5 60h1v1H5z"/><path fill="#598423" d="M6 60h1v1H6z"/><path fill="#558124" d="M7 60h1v1H7z"/><path fill="#507D25" d="M8 60h1v1H8z"/><path fill="#4C7A27" d="M9 60h1v1H9z"/><path fill="#487628" d="M10 60h1v1h-1z"/><path fill="#447329" d="M11 60h1v1h-1z"/><path fill="#406F2A" d="M12 60h1v1h-1z"/><path fill="#3C6C2C" d="M13 60h1v1h-1z"/><path fill="#38682D" d="M14 60h1v1h-1z"/><path fill="#0F380F" d="M15 60h1v1h-1zM0 61h1v1H0z"/><path fill="#69921E" d="M1 61h1v1H1z"/><path fill="#658F1F" d="M2 61h1v1H2z"/><path fill="#618B20" d="M3 61h1v1H3z"/><path fill="#5D8822" d="M4 61h1v1H4z"/><path fill="#598423" d="M5 61h1v1H5z"/><path fill="#558124" d="M6 61h1v1H6z"/><path fill="#507D25" d="M7 61h1v1H7z"/><path fill="#4C7A27" d="M8 61h1v1H8z"/><path fill="#487628" d="M9 61h1v1H9z"/><path fill="#447329" d="M10 61h1v1h-1z"/><path fill="#406F2A" d="M11 61h1v1h-1z"/><path fill="#3C6C2C" d="M12 61h1v1h-1z"/><path fill="#38682D" d="M13 61h1v1h-1z"/><path fill="#34652E" d="M14 61h1v1h-1z"/><path fill="#0F380F" d="M15 61h1v1h-1zM0 62h1v1H0z"/><path fill="#658F1F" d="M1 62h1v1H1z"/><path fill="#618B20" d="M2 62h1v1H2z"/><path fill="#5D8822" d="M3 62h1v1H3z"/><path fill="#598423" d="M4 62h1v1H4z"/><path fill="#558124" d="M5 62h1v1H5z"/><path fill="#507D25" d="M6 62h1v1H6z"/><path fill="#4C7A27" d="M7 62h1v1H7z"/><path fill="#487628" d="M8 62h1v1H8z"/><path fill="#447329" d="M9 62h1v1H9z"/><path fill="#406F2A" d="M10 62h1v1h-1z"/><path fill="#3C6C2C" d="M11 62h1v1h-1z"/><path fill="#38682D" d="M12 62h1v1h-1z"/><path fill="#34652E" d="M13 62h1v1h-1z"/><path fill="#306230" d="M14 62h1v1h-1z"/><path fill="#0F380F" d="M15 62h1v1h-1zM0 63h1v1H0zm1 0h1v1H1zm1 0h1v1H2zm1 0h1v1H3zm1 0h1v1H4zm1 0h1v1H5zm1 0h1v1H6zm1 0h1v1H7zm1 0h1v1H8zm1 0h1v1H9zm1 0h1v1h-1zm1 0h1v1h-1zm1 0h1v1h-1zm1 0h1v1h-1zm1 0h1v1h-1zm1 0h1v1h-1z"/></svg>