<svg xmlns="http://www.w3.org/2000/svg" width="64" height="64" shape-rendering="crispEdges"><path fill="#0F380F" d="M0 0h1v1H0zm1 0h1v1H1zm1 0h1v1H2zm1 0h1v1H3zm1 0h1v1H4zm1 0h1v1H5zm1 0h1v1H6zm1 0h1v1H7zm1 0h1v1H8zm1 0h1v1H9zm1 0h1v1h-1zm1 0h1v1h-1zm1 0h1v1h-1zm1 0h1v1h-1zm1 0h1v1h-1zm1 0h1v1h-1zm1 0h1v1h-1zm1 0h1v1h-1zm1 0h1v1h-1zm1 0h1v1h-1zm1 0h1v1h-1zm1 0h1v1h-1zm1 0h1v1h-1zm1 0h1v1h-1zm1 0h1v1h-1zm1 0h1v1h-1zm1 0h1v1h-1zm1 0h1v1h-1zm1 0h1v1h-1zm1 0h1v1h-1zm1 0h1v1h-1zm1 0h1v1h-1zm1 0h1v1h-1zm1 0h1v1h-1zm1 0h1v1h-1zm1 0h1v1h-1zm1 0h1v1h-1zm1 0h1v1h-1zm1 0h1v1h-1zm1 0h1v1h-1zm1 0h1v1h-1zm1 0h1v1h-1zm1 0h1v1h-1zm1 0h1v1h-1zm1 0h1v1h-1zm1 0h1v1h-1zm1 0h1v1h-1zm1 0h1v1h-1zM0 1h1v1H0z"/><path fill="#9BBC0F" d="M1 1h1v1H1z"/><path fill="#96B810" d="M2 1h1v1H2z"/><path fill="#92B511" d="M3 1h1v1H3z"/><path fill="#8EB112" d="M4 1h1v1H4z"/><path fill="#8AAE14" d="M5 1h1v1H5z"/><path fill="#86AA15" d="M6 1h1v1H6z"/><path fill="#82A716" d="M7 1h1v1H7z"/><path fill="#7EA317" d="M8 1h1v1H8z"/><path fill="#7AA019" d="M9 1h1v1H9z"/><path fill="#769C1A" d="M10 1h1v1h-1z"/><path fill="#71991B" d="M11 1h1v1h-1z"/><path fill="#6D961C" d="M12 1h1v1h-1z"/><path fill="#69921E" d="M13 1h1v1h-1z"/><path fill="#658F1F" d="M14 1h1v1h-1z"/><path fill="#618B20" d="M15 1h1v1h-1z"/><path fill="#0F380F" d="M16 1h1v1h-1z"/><path fill="#9BBC0F" d="M17 1h1v1h-1z"/><path fill="#96B810" d="M18 1h1v1h-1z"/><path fill="#92B511" d="M19 1h1v1h-1z"/><path fill="#8EB112" d="M20 1h1v1h-1z"/><path fill="#8AAE14" d="M21 1h1v1h-1z"/><path fill="#86AA15" d="M22 1h1v1h-1z"/><path fill="#82A716" d="M23 1h1v1h-1z"/><path fill="#7EA317" d="M24 1h1v1h-1z"/><path fill="#7AA019" d="M25 1h1v1h-1z"/><path fill="#759C1A" d="M26 1h1v1h-1z"/><path fill="#71991B" d="M27 1h1v1h-1z"/><path fill="#6D951C" d="M28 1h1v1h-1z"/><path fill="#69921E" d="M29 1h1v1h-1z"/><path fill="#658F1F" d="M30 1h1v1h-1z"/><path fill="#0F380F" d="M31 1h1v1h-1z"/><path fill="#9BBC0F" d="M32 1h1v1h-1z"/><path fill="#96B810" d="M33 1h1v1h-1z"/><path fill="#92B511" d="M34 1h1v1h-1z"/><path fill="#8EB112" d="M35 1h1v1h-1z"/><path fill="#8AAE14" d="M36 1h1v1h-1z"/><path fill="#86AA15" d="M37 1h1v1h-1z"/><path fill="#82A716" d="M38 1h1v1h-1z"/><path fill="#7EA317" d="M39 1h1v1h-1z"/><path fill="#7AA019" d="M40 1h1v1h-1z"/><path fill="#769C1A" d="M41 1h1v1h-1z"/><path fill="#71991B" d="M42 1h1v1h-1z"/><path fill="#6D961C" d="M43 1h1v1h-1z"/><path fill="#69921E" d="M44 1h1v1h-1z"/><path fill="#658F1F" d="M45 1h1v1h-1z"/><path fill="#618B20" d="M46 1h1v1h-1z"/><path fill="#0F380F" d="M47 1h1v1h-1zM0 2h1v1H0z"/><path fill="#97B810" d="M1 2h1v1H1z"/><path fill="#93B511" d="M2 2h1v1H2z"/><path fill="#8EB112" d="M3 2h1v1H3z"/><path fill="#8AAE13" d="M4 2h1v1H4z"/><path fill="#86AA15" d="M5 2h1v1H5z"/><path fill="#82A716" d="M6 2h1v1H6z"/><path fill="#7EA417" d="M7 2h1v1H7z"/><path fill="#7AA019" d="M8 2h1v1H8z"/><path fill="#769D1A" d="M9 2h1v1H9z"/><path fill="#72991B" d="M10 2h1v1h-1z"/><path fill="#6E961C" d="M11 2h1v1h-1z"/><path fill="#6A921E" d="M12 2h1v1h-1z"/><path fill="#658F1F" d="M13 2h1v1h-1z"/><path fill="#618B20" d="M14 2h1v1h-1z"/><path fill="#5D8821" d="M15 2h1v1h-1z"/><path fill="#0F380F" d="M16 2h1v1h-1z"/><path fill="#96B810" d="M17 2h1v1h-1z"/><path fill="#92B511" d="M18 2h1v1h-1z"/><path fill="#8EB112" d="M19 2h1v1h-1z"/><path fill="#8AAE14" d="M20 2h1v1h-1z"/><path fill="#86AA15" d="M21 2h1v1h-1z"/><path fill="#82A716" d="M22 2h1v1h-1z"/><path fill="#7EA317" d="M23 2h1v1h-1z"/><path fill="#7AA019" d="M24 2h1v1h-1z"/><path fill="#759C1A" d="M25 2h1v1h-1z"/><path fill="#71991B" d="M26 2h1v1h-1z"/><path fill="#6D951C" d="M27 2h1v1h-1z"/><path fill="#69921E" d="M28 2h1v1h-1z"/><path fill="#658F1F" d="M29 2h1v1h-1z"/><path fill="#618B20" d="M30 2h1v1h-1z"/><path fill="#0F380F" d="M31 2h1v1h-1z"/><path fill="#97B810" d="M32 2h1v1h-1z"/><path fill="#93B511" d="M33 2h1v1h-1z"/><path fill="#8EB112" d="M34 2h1v1h-1z"/><path fill="#8AAE13" d="M35 2h1v1h-1z"/><path fill="#86AA15" d="M36 2h1v1h-1z"/><path fill="#82A716" d="M37 2h1v1h-1z"/><path fill="#7EA417" d="M38 2h1v1h-1z"/><path fill="#7AA019" d="M39 2h1v1h-1z"/><path fill="#769D1A" d="M40 2h1v1h-1z"/><path fill="#72991B" d="M41 2h1v1h-1z"/><path fill="#6E961C" d="M42 2h1v1h-1z"/><path fill="#6A921E" d="M43 2h1v1h-1z"/><path fill="#658F1F" d="M44 2h1v1h-1z"/><path fill="#618B20" d="M45 2h1v1h-1z"/><path fill="#5D8821" d="M46 2h1v1h-1z"/><path fill="#0F380F" d="M47 2h1v1h-1zM0 3h1v1H0z"/><path fill="#93B511" d="M1 3h1v1H1z"/><path fill="#8FB212" d="M2 3h1v1H2z"/><path fill="#8BAE13" d="M3 3h1v1H3z"/><path fill="#87AB15" d="M4 3h1v1H4z"/><path fill="#82A716" d="M5 3h1v1H5z"/><path fill="#7EA417" d="M6 3h1v1H6z"/><path fill="#7AA018" d="M7 3h1v1H7z"/><path fill="#769D1A" d="M8 3h1v1H8z"/><path fill="#72991B" d="M9 3h1v1H9z"/><path fill="#6E961C" d="M10 3h1v1h-1z"/><path fill="#6A931E" d="M11 3h1v1h-1z"/><path fill="#668F1F" d="M12 3h1v1h-1z"/><path fill="#628C20" d="M13 3h1v1h-1z"/><path fill="#5E8821" d="M14 3h1v1h-1z"/><path fill="#598523" d="M15 3h1v1h-1z"/><path fill="#0F380F" d="M16 3h1v1h-1z"/><path fill="#92B511" d="M17 3h1v1h-1z"/><path fill="#8EB112" d="M18 3h1v1h-1z"/><path fill="#8AAE14" d="M19 3h1v1h-1z"/><path fill="#86AA15" d="M20 3h1v1h-1z"/><path fill="#82A716" d="M21 3h1v1h-1z"/><path fill="#7EA317" d="M22 3h1v1h-1z"/><path fill="#7AA019" d="M23 3h1v1h-1z"/><path fill="#759C1A" d="M24 3h1v1h-1z"/><path fill="#71991B" d="M25 3h1v1h-1z"/><path fill="#6D951C" d="M26 3h1v1h-1z"/><path fill="#69921E" d="M27 3h1v1h-1z"/><path fill="#658F1F" d="M28 3h1v1h-1z"/><path fill="#618B20" d="M29 3h1v1h-1z"/><path fill="#5D8822" d="M30 3h1v1h-1z"/><path fill="#0F380F" d="M31 3h1v1h-1z"/><path fill="#93B511" d="M32 3h1v1h-1z"/><path fill="#8FB212" d="M33 3h1v1h-1z"/><path fill="#8BAE13" d="M34 3h1v1h-1z"/><path fill="#87AB15" d="M35 3h1v1h-1z"/><path fill="#82A716" d="M36 3h1v1h-1z"/><path fill="#7EA417" d="M37 3h1v1h-1z"/><path fill="#7AA018" d="M38 3h1v1h-1z"/><path fill="#769D1A" d="M39 3h1v1h-1z"/><path fill="#72991B" d="M40 3h1v1h-1z"/><path fill="#6E961C" d="M41 3h1v1h-1z"/><path fill="#6A931E" d="M42 3h1v1h-1z"/><path fill="#668F1F" d="M43 3h1v1h-1z"/><path fill="#628C20" d="M44 3h1v1h-1z"/><path fill="#5E8821" d="M45 3h1v1h-1z"/><path fill="#598523" d="M46 3h1v1h-1z"/><path fill="#0F380F" d="M47 3h1v1h-1zM0 4h1v1H0z"/><path fill="#8FB212" d="M1 4h1v1H1z"/><path fill="#8BAE13" d="M2 4h1v1H2z"/><path fill="#87AB15" d="M3 4h1v1H3z"/><path fill="#83A816" d="M4 4h1v1H4z"/><path fill="#7FA417" d="M5 4h1v1H5z"/><path fill="#7BA118" d="M6 4h1v1H6z"/><path fill="#769D1A" d="M7 4h1v1H7z"/><path fill="#729A1B" d="M8 4h1v1H8z"/><path fill="#6E961C" d="M9 4h1v1H9z"/><path fill="#6A931D" d="M10 4h1v1h-1z"/><path fill="#668F1F" d="M11 4h1v1h-1z"/><path fill="#628C20" d="M12 4h1v1h-1z"/><path fill="#5E8821" d="M13 4h1v1h-1z"/><path fill="#5A8522" d="M14 4h1v1h-1z"/><path fill="#568224" d="M15 4h1v1h-1z"/><path fill="#0F380F" d="M16 4h1v1h-1z"/><path fill="#8EB112" d="M17 4h1v1h-1z"/><path fill="#8AAE14" d="M18 4h1v1h-1z"/><path fill="#86AA15" d="M19 4h1v1h-1z"/><path fill="#82A716" d="M20 4h1v1h-1z"/><path fill="#7EA317" d="M21 4h1v1h-1z"/><path fill="#7AA019" d="M22 4h1v1h-1z"/><path fill="#759C1A" d="M23 4h1v1h-1z"/><path fill="#71991B" d="M24 4h1v1h-1z"/><path fill="#6D951C" d="M25 4h1v1h-1z"/><path fill="#69921E" d="M26 4h1v1h-1z"/><path fill="#658F1F" d="M27 4h1v1h-1z"/><path fill="#618B20" d="M28 4h1v1h-1z"/><path fill="#5D8822" d="M29 4h1v1h-1z"/><path fill="#598423" d="M30 4h1v1h-1z"/><path fill="#0F380F" d="M31 4h1v1h-1z"/><path fill="#8FB212" d="M32 4h1v1h-1z"/><path fill="#8BAE13" d="M33 4h1v1h-1z"/><path fill="#87AB15" d="M34 4h1v1h-1z"/><path fill="#83A816" d="M35 4h1v1h-1z"/><path fill="#7FA417" d="M36 4h1v1h-1z"/><path fill="#7BA118" d="M37 4h1v1h-1z"/><path fill="#769D1A" d="M38 4h1v1h-1z"/><path fill="#729A1B" d="M39 4h1v1h-1z"/><path fill="#6E961C" d="M40 4h1v1h-1z"/><path fill="#6A931D" d="M41 4h1v1h-1z"/><path fill="#668F1F" d="M42 4h1v1h-1z"/><path fill="#628C20" d="M43 4h1v1h-1z"/><path fill="#5E8821" d="M44 4h1v1h-1z"/><path fill="#5A8522" d="M45 4h1v1h-1z"/><path fill="#568224" d="M46 4h1v1h-1z"/><path fill="#0F380F" d="M47 4h1v1h-1zM0 5h1v1H0z"/><path fill="#8BAF13" d="M1 5h1v1H1z"/><path fill="#87AB14" d="M2 5h1v1H2z"/><path fill="#83A816" d="M3 5h1v1H3z"/><path fill="#7FA417" d="M4 5h1v1H4z"/><path fill="#7BA118" d="M5 5h1v1H5z"/><path fill="#779D1A" d="M6 5h1v1H6z"/><path fill="#739A1B" d="M7 5h1v1H7z"/><path fill="#6F971C" d="M8 5h1v1H8z"/><path fill="#6A931D" d="M9 5h1v1H9z"/><path fill="#66901F" d="M10 5h1v1h-1z"/><path fill="#628C20" d="M11 5h1v1h-1z"/><path fill="#5E8921" d="M12 5h1v1h-1z"/><path fill="#5A8522" d="M13 5h1v1h-1z"/><path fill="#568224" d="M14 5h1v1h-1z"/><path fill="#527E25" d="M15 5h1v1h-1z"/><path fill="#0F380F" d="M16 5h1v1h-1z"/><path fill="#8AAE14" d="M17 5h1v1h-1z"/><path fill="#86AA15" d="M18 5h1v1h-1z"/><path fill="#82A716" d="M19 5h1v1h-1z"/><path fill="#7EA317" d="M20 5h1v1h-1z"/><path fill="#7AA019" d="M21 5h1v1h-1z"/><path fill="#759C1A" d="M22 5h1v1h-1z"/><path fill="#71991B" d="M23 5h1v1h-1z"/><path fill="#6D951C" d="M24 5h1v1h-1z"/><path fill="#69921E" d="M25 5h1v1h-1z"/><path fill="#658F1F" d="M26 5h1v1h-1z"/><path fill="#618B20" d="M27 5h1v1h-1z"/><path fill="#5D8822" d="M28 5h1v1h-1z"/><path fill="#598423" d="M29 5h1v1h-1z"/><path fill="#558124" d="M30 5h1v1h-1z"/><path fill="#0F380F" d="M31 5h1v1h-1z"/><path fill="#8BAF13" d="M32 5h1v1h-1z"/><path fill="#87AB14" d="M33 5h1v1h-1z"/><path fill="#83A816" d="M34 5h1v1h-1z"/><path fill="#7FA417" d="M35 5h1v1h-1z"/><path fill="#7BA118" d="M36 5h1v1h-1z"/><path fill="#779D1A" d="M37 5h1v1h-1z"/><path fill="#739A1B" d="M38 5h1v1h-1z"/><path fill="#6F971C" d="M39 5h1v1h-1z"/><path fill="#6A931D" d="M40 5h1v1h-1z"/><path fill="#66901F" d="M41 5h1v1h-1z"/><path fill="#628C20" d="M42 5h1v1h-1z"/><path fill="#5E8921" d="M43 5h1v1h-1z"/><path fill="#5A8522" d="M44 5h1v1h-1z"/><path fill="#568224" d="M45 5h1v1h-1z"/><path fill="#527E25" d="M46 5h1v1h-1z"/><path fill="#0F380F" d="M47 5h1v1h-1zM0 6h1v1H0z"/><path fill="#87AB14" d="M1 6h1v1H1z"/><path fill="#83A816" d="M2 6h1v1H2z"/><path fill="#7FA517" d="M3 6h1v1H3z"/><path fill="#7BA118" d="M4 6h1v1H4z"/><path fill="#779E19" d="M5 6h1v1H5z"/><path fill="#739A1B" d="M6 6h1v1H6z"/><path fill="#6F971C" d="M7 6h1v1H7z"/><path fill="#6B931D" d="M8 6h1v1H8z"/><path fill="#67901F" d="M9 6h1v1H9z"/><path fill="#638C20" d="M10 6h1v1h-1z"/><path fill="#5E8921" d="M11 6h1v1h-1z"/><path fill="#5A8622" d="M12 6h1v1h-1z"/><path fill="#568224" d="M13 6h1v1h-1z"/><path fill="#527F25" d="M14 6h1v1h-1z"/><path fill="#4E7B26" d="M15 6h1v1h-1z"/><path fill="#0F380F" d="M16 6h1v1h-1z"/><path fill="#86AA15" d="M17 6h1v1h-1z"/><path fill="#82A716" d="M18 6h1v1h-1z"/><path fill="#7EA317" d="M19 6h1v1h-1z"/><path fill="#7AA019" d="M20 6h1v1h-1z"/><path fill="#759C1A" d="M21 6h1v1h-1z"/><path fill="#71991B" d="M22 6h1v1h-1z"/><path fill="#6D951C" d="M23 6h1v1h-1z"/><path fill="#69921E" d="M24 6h1v1h-1z"/><path fill="#658F1F" d="M25 6h1v1h-1z"/><path fill="#618B20" d="M26 6h1v1h-1z"/><path fill="#5D8822" d="M27 6h1v1h-1z"/><path fill="#598423" d="M28 6h1v1h-1z"/><path fill="#558124" d="M29 6h1v1h-1z"/><path fill="#507D25" d="M30 6h1v1h-1z"/><path fill="#0F380F" d="M31 6h1v1h-1z"/><path fill="#87AB14" d="M32 6h1v1h-1z"/><path fill="#83A816" d="M33 6h1v1h-1z"/><path fill="#7FA517" d="M34 6h1v1h-1z"/><path fill="#7BA118" d="M35 6h1v1h-1z"/><path fill="#779E19" d="M36 6h1v1h-1z"/><path fill="#739A1B" d="M37 6h1v1h-1z"/><path fill="#6F971C" d="M38 6h1v1h-1z"/><path fill="#6B931D" d="M39 6h1v1h-1z"/><path fill="#67901F" d="M40 6h1v1h-1z"/><path fill="#638C20" d="M41 6h1v1h-1z"/><path fill="#5E8921" d="M42 6h1v1h-1z"/><path fill="#5A8622" d="M43 6h1v1h-1z"/><path fill="#568224" d="M44 6h1v1h-1z"/><path fill="#527F25" d="M45 6h1v1h-1z"/><path fill="#4E7B26" d="M46 6h1v1h-1z"/><path fill="#0F380F" d="M47 6h1v1h-1zM0 7h1v1H0z"/><path fill="#84A816" d="M1 7h1v1H1z"/><path fill="#80A517" d="M2 7h1v1H2z"/><path fill="#7BA118" d="M3 7h1v1H3z"/><path fill="#779E19" d="M4 7h1v1H4z"/><path fill="#739A1B" d="M5 7h1v1H5z"/><path fill="#6F971C" d="M6 7h1v1H6z"/><path fill="#6B941D" d="M7 7h1v1H7z"/><path fill="#67901E" d="M8 7h1v1H8z"/><path fill="#638D20" d="M9 7h1v1H9z"/><path fill="#5F8921" d="M10 7h1v1h-1z"/><path fill="#5B8622" d="M11 7h1v1h-1z"/><path fill="#568223" d="M12 7h1v1h-1z"/><path fill="#527F25" d="M13 7h1v1h-1z"/><path fill="#4E7B26" d="M14 7h1v1h-1z"/><path fill="#4A7827" d="M15 7h1v1h-1z"/><path fill="#0F380F" d="M16 7h1v1h-1z"/><path fill="#82A716" d="M17 7h1v1h-1z"/><path fill="#7EA317" d="M18 7h1v1h-1z"/><path fill="#7AA019" d="M19 7h1v1h-1z"/><path fill="#759C1A" d="M20 7h1v1h-1z"/><path fill="#71991B" d="M21 7h1v1h-1z"/><path fill="#6D951C" d="M22 7h1v1h-1z"/><path fill="#69921E" d="M23 7h1v1h-1z"/><path fill="#658F1F" d="M24 7h1v1h-1z"/><path fill="#618B20" d="M25 7h1v1h-1z"/><path fill="#5D8822" d="M26 7h1v1h-1z"/><path fill="#598423" d="M27 7h1v1h-1z"/><path fill="#558124" d="M28 7h1v1h-1z"/><path fill="#507D25" d="M29 7h1v1h-1z"/><path fill="#4C7A27" d="M30 7h1v1h-1z"/><path fill="#0F380F" d="M31 7h1v1h-1z"/><path fill="#84A816" d="M32 7h1v1h-1z"/><path fill="#80A517" d="M33 7h1v1h-1z"/><path fill="#7BA118" d="M34 7h1v1h-1z"/><path fill="#779E19" d="M35 7h1v1h-1z"/><path fill="#739A1B" d="M36 7h1v1h-1z"/><path fill="#6F971C" d="M37 7h1v1h-1z"/><path fill="#6B941D" d="M38 7h1v1h-1z"/><path fill="#67901E" d="M39 7h1v1h-1z"/><path fill="#638D20" d="M40 7h1v1h-1z"/><path fill="#5F8921" d="M41 7h1v1h-1z"/><path fill="#5B8622" d="M42 7h1v1h-1z"/><path fill="#568223" d="M43 7h1v1h-1z"/><path fill="#527F25" d="M44 7h1v1h-1z"/><path fill="#4E7B26" d="M45 7h1v1h-1z"/><path fill="#4A7827" d="M46 7h1v1h-1z"/><path fill="#0F380F" d="M47 7h1v1h-1zM0 8h1v1H0z"/><path fill="#80A517" d="M1 8h1v1H1z"/><path fill="#7CA218" d="M2 8h1v1H2z"/><path fill="#789E19" d="M3 8h1v1H3z"/><path fill="#749B1B" d="M4 8h1v1H4z"/><path fill="#6F971C" d="M5 8h1v1H5z"/><path fill="#6B941D" d="M6 8h1v1H6z"/><path fill="#67901E" d="M7 8h1v1H7z"/><path fill="#638D20" d="M8 8h1v1H8z"/><path fill="#5F8921" d="M9 8h1v1H9z"/><path fill="#5B8622" d="M10 8h1v1h-1z"/><path fill="#578323" d="M11 8h1v1h-1z"/><path fill="#537F25" d="M12 8h1v1h-1z"/><path fill="#4F7C26" d="M13 8h1v1h-1z"/><path fill="#4A7827" d="M14 8h1v1h-1z"/><path fill="#467528" d="M15 8h1v1h-1z"/><path fill="#0F380F" d="M16 8h1v1h-1z"/><path fill="#7EA317" d="M17 8h1v1h-1z"/><path fill="#7AA019" d="M18 8h1v1h-1z"/><path fill="#759C1A" d="M19 8h1v1h-1z"/><path fill="#71991B" d="M20 8h1v1h-1z"/><path fill="#6D951C" d="M21 8h1v1h-1z"/><path fill="#69921E" d="M22 8h1v1h-1z"/><path fill="#658F1F" d="M23 8h1v1h-1z"/><path fill="#618B20" d="M24 8h1v1h-1z"/><path fill="#5D8822" d="M25 8h1v1h-1z"/><path fill="#598423" d="M26 8h1v1h-1z"/><path fill="#558124" d="M27 8h1v1h-1z"/><path fill="#507D25" d="M28 8h1v1h-1z"/><path fill="#4C7A27" d="M29 8h1v1h-1z"/><path fill="#487628" d="M30 8h1v1h-1z"/><path fill="#0F380F" d="M31 8h1v1h-1z"/><path fill="#80A517" d="M32 8h1v1h-1z"/><path fill="#7CA218" d="M33 8h1v1h-1z"/><path fill="#789E19" d="M34 8h1v1h-1z"/><path fill="#749B1B" d="M35 8h1v1h-1z"/><path fill="#6F971C" d="M36 8h1v1h-1z"/><path fill="#6B941D" d="M37 8h1v1h-1z"/><path fill="#67901E" d="M38 8h1v1h-1z"/><path fill="#638D20" d="M39 8h1v1h-1z"/><path fill="#5F8921" d="M40 8h1v1h-1z"/><path fill="#5B8622" d="M41 8h1v1h-1z"/><path fill="#578323" d="M42 8h1v1h-1z"/><path fill="#537F25" d="M43 8h1v1h-1z"/><path fill="#4F7C26" d="M44 8h1v1h-1z"/><path fill="#4A7827" d="M45 8h1v1h-1z"/><path fill="#467528" d="M46 8h1v1h-1z"/><path fill="#0F380F" d="M47 8h1v1h-1zM0 9h1v1H0z"/><path fill="#7CA218" d="M1 9h1v1H1z"/><path fill="#789E19" d="M2 9h1v1H2z"/><path fill="#749B1A" d="M3 9h1v1H3z"/><path fill="#70981C" d="M4 9h1v1H4z"/><path fill="#6C941D" d="M5 9h1v1H5z"/><path fill="#67911E" d="M6 9h1v1H6z"/><path fill="#638D1F" d="M7 9h1v1H7z"/><path fill="#5F8A21" d="M8 9h1v1H8z"/><path fill="#5B8622" d="M9 9h1v1H9z"/><path fill="#578323" d="M10 9h1v1h-1z"/><path fill="#537F25" d="M11 9h1v1h-1z"/><path fill="#4F7C26" d="M12 9h1v1h-1z"/><path fill="#4B7827" d="M13 9h1v1h-1z"/><path fill="#477528" d="M14 9h1v1h-1z"/><path fill="#43722A" d="M15 9h1v1h-1z"/><path fill="#0F380F" d="M16 9h1v1h-1z"/><path fill="#7AA019" d="M17 9h1v1h-1z"/><path fill="#759C1A" d="M18 9h1v1h-1z"/><path fill="#71991B" d="M19 9h1v1h-1z"/><path fill="#6D951C" d="M20 9h1v1h-1z"/><path fill="#69921E" d="M21 9h1v1h-1z"/><path fill="#658F1F" d="M22 9h1v1h-1z"/><path fill="#618B20" d="M23 9h1v1h-1z"/><path fill="#5D8822" d="M24 9h1v1h-1z"/><path fill="#598423" d="M25 9h1v1h-1z"/><path fill="#558124" d="M26 9h1v1h-1z"/><path fill="#507D25" d="M27 9h1v1h-1z"/><path fill="#4C7A27" d="M28 9h1v1h-1z"/><path fill="#487628" d="M29 9h1v1h-1z"/><path fill="#447329" d="M30 9h1v1h-1z"/><path fill="#0F380F" d="M31 9h1v1h-1z"/><path fill="#7CA218" d="M32 9h1v1h-1z"/><path fill="#789E19" d="M33 9h1v1h-1z"/><path fill="#749B1A" d="M34 9h1v1h-1z"/><path fill="#70981C" d="M35 9h1v1h-1z"/><path fill="#6C941D" d="M36 9h1v1h-1z"/><path fill="#67911E" d="M37 9h1v1h-1z"/><path fill="#638D1F" d="M38 9h1v1h-1z"/><path fill="#5F8A21" d="M39 9h1v1h-1z"/><path fill="#5B8622" d="M40 9h1v1h-1z"/><path fill="#578323" d="M41 9h1v1h-1z"/><path fill="#537F25" d="M42 9h1v1h-1z"/><path fill="#4F7C26" d="M43 9h1v1h-1z"/><path fill="#4B7827" d="M44 9h1v1h-1z"/><path fill="#477528" d="M45 9h1v1h-1z"/><path fill="#43722A" d="M46 9h1v1h-1z"/><path fill="#0F380F" d="M47 9h1v1h-1zM0 10h1v1H0z"/><path fill="#789F19" d="M1 10h1v1H1z"/><path fill="#749B1A" d="M2 10h1v1H2z"/><path fill="#70981C" d="M3 10h1v1H3z"/><path fill="#6C941D" d="M4 10h1v1H4z"/><path fill="#68911E" d="M5 10h1v1H5z"/><path fill="#648D1F" d="M6 10h1v1H6z"/><path fill="#608A21" d="M7 10h1v1H7z"/><path fill="#5B8622" d="M8 10h1v1H8z"/><path fill="#578323" d="M9 10h1v1H9z"/><path fill="#538024" d="M10 10h1v1h-1z"/><path fill="#4F7C26" d="M11 10h1v1h-1z"/><path fill="#4B7927" d="M12 10h1v1h-1z"/><path fill="#477528" d="M13 10h1v1h-1z"/><path fill="#43722A" d="M14 10h1v1h-1z"/><path fill="#3F6E2B" d="M15 10h1v1h-1z"/><path fill="#0F380F" d="M16 10h1v1h-1z"/><path fill="#759C1A" d="M17 10h1v1h-1z"/><path fill="#71991B" d="M18 10h1v1h-1z"/><path fill="#6D951C" d="M19 10h1v1h-1z"/><path fill="#69921E" d="M20 10h1v1h-1z"/><path fill="#658F1F" d="M21 10h1v1h-1z"/><path fill="#618B20" d="M22 10h1v1h-1z"/><path fill="#5D8822" d="M23 10h1v1h-1z"/><path fill="#598423" d="M24 10h1v1h-1z"/><path fill="#558124" d="M25 10h1v1h-1z"/><path fill="#507D25" d="M26 10h1v1h-1z"/><path fill="#4C7A27" d="M27 10h1v1h-1z"/><path fill="#487628" d="M28 10h1v1h-1z"/><path fill="#447329" d="M29 10h1v1h-1z"/><path fill="#406F2A" d="M30 10h1v1h-1z"/><path fill="#0F380F" d="M31 10h1v1h-1z"/><path fill="#789F19" d="M32 10h1v1h-1z"/><path fill="#749B1A" d="M33 10h1v1h-1z"/><path fill="#70981C" d="M34 10h1v1h-1z"/><path fill="#6C941D" d="M35 10h1v1h-1z"/><path fill="#68911E" d="M36 10h1v1h-1z"/><path fill="#648D1F" d="M37 10h1v1h-1z"/><path fill="#608A21" d="M38 10h1v1h-1z"/><path fill="#5B8622" d="M39 10h1v1h-1z"/><path fill="#578323" d="M40 10h1v1h-1z"/><path fill="#538024" d="M41 10h1v1h-1z"/><path fill="#4F7C26" d="M42 10h1v1h-1z"/><path fill="#4B7927" d="M43 10h1v1h-1z"/><path fill="#477528" d="M44 10h1v1h-1z"/><path fill="#43722A" d="M45 10h1v1h-1z"/><path fill="#3F6E2B" d="M46 10h1v1h-1z"/><path fill="#0F380F" d="M47 10h1v1h-1zM0 11h1v1H0z"/><path fill="#749B1A" d="M1 11h1v1H1z"/><path fill="#70981C" d="M2 11h1v1H2z"/><path fill="#6C951D" d="M3 11h1v1H3z"/><path fill="#68911E" d="M4 11h1v1H4z"/><path fill="#648E1F" d="M5 11h1v1H5z"/><path fill="#608A21" d="M6 11h1v1H6z"/><path fill="#5C8722" d="M7 11h1v1H7z"/><path fill="#588323" d="M8 11h1v1H8z"/><path fill="#548024" d="M9 11h1v1H9z"/><path fill="#4F7C26" d="M10 11h1v1h-1z"/><path fill="#4B7927" d="M11 11h1v1h-1z"/><path fill="#477528" d="M12 11h1v1h-1z"/><path fill="#437229" d="M13 11h1v1h-1z"/><path fill="#3F6F2B" d="M14 11h1v1h-1z"/><path fill="#3B6B2C" d="M15 11h1v1h-1z"/><path fill="#0F380F" d="M16 11h1v1h-1z"/><path fill="#71991B" d="M17 11h1v1h-1z"/><path fill="#6D951C" d="M18 11h1v1h-1z"/><path fill="#69921E" d="M19 11h1v1h-1z"/><path fill="#658F1F" d="M20 11h1v1h-1z"/><path fill="#618B20" d="M21 11h1v1h-1z"/><path fill="#5D8822" d="M22 11h1v1h-1z"/><path fill="#598423" d="M23 11h1v1h-1z"/><path fill="#558124" d="M24 11h1v1h-1z"/><path fill="#507D25" d="M25 11h1v1h-1z"/><path fill="#4C7A27" d="M26 11h1v1h-1z"/><path fill="#487628" d="M27 11h1v1h-1z"/><path fill="#447329" d="M28 11h1v1h-1z"/><path fill="#406F2A" d="M29 11h1v1h-1z"/><path fill="#3C6C2C" d="M30 11h1v1h-1z"/><path fill="#0F380F" d="M31 11h1v1h-1z"/><path fill="#749B1A" d="M32 11h1v1h-1z"/><path fill="#70981C" d="M33 11h1v1h-1z"/><path fill="#6C951D" d="M34 11h1v1h-1z"/><path fill="#68911E" d="M35 11h1v1h-1z"/><path fill="#648E1F" d="M36 11h1v1h-1z"/><path fill="#608A21" d="M37 11h1v1h-1z"/><path fill="#5C8722" d="M38 11h1v1h-1z"/><path fill="#588323" d="M39 11h1v1h-1z"/><path fill="#548024" d="M40 11h1v1h-1z"/><path fill="#4F7C26" d="M41 11h1v1h-1z"/><path fill="#4B7927" d="M42 11h1v1h-1z"/><path fill="#477528" d="M43 11h1v1h-1z"/><path fill="#437229" d="M44 11h1v1h-1z"/><path fill="#3F6F2B" d="M45 11h1v1h-1z"/><path fill="#3B6B2C" d="M46 11h1v1h-1z"/><path fill="#0F380F" d="M47 11h1v1h-1zM0 12h1v1H0z"/><path fill="#71981B" d="M1 12h1v1H1z"/><path fill="#6C951D" d="M2 12h1v1H2z"/><path fill="#68911E" d="M3 12h1v1H3z"/><path fill="#648E1F" d="M4 12h1v1H4z"/><path fill="#608A20" d="M5 12h1v1H5z"/><path fill="#5C8722" d="M6 12h1v1H6z"/><path fill="#588423" d="M7 12h1v1H7z"/><path fill="#548024" d="M8 12h1v1H8z"/><path fill="#507D26" d="M9 12h1v1H9z"/><path fill="#4C7927" d="M10 12h1v1h-1z"/><path fill="#487628" d="M11 12h1v1h-1z"/><path fill="#437229" d="M12 12h1v1h-1z"/><path fill="#3F6F2B" d="M13 12h1v1h-1z"/><path fill="#3B6B2C" d="M14 12h1v1h-1z"/><path fill="#37682D" d="M15 12h1v1h-1z"/><path fill="#0F380F" d="M16 12h1v1h-1z"/><path fill="#6D951C" d="M17 12h1v1h-1z"/><path fill="#69921E" d="M18 12h1v1h-1z"/><path fill="#658F1F" d="M19 12h1v1h-1z"/><path fill="#618B20" d="M20 12h1v1h-1z"/><path fill="#5D8822" d="M21 12h1v1h-1z"/><path fill="#598423" d="M22 12h1v1h-1z"/><path fill="#558124" d="M23 12h1v1h-1z"/><path fill="#507D25" d="M24 12h1v1h-1z"/><path fill="#4C7A27" d="M25 12h1v1h-1z"/><path fill="#487628" d="M26 12h1v1h-1z"/><path fill="#447329" d="M27 12h1v1h-1z"/><path fill="#406F2A" d="M28 12h1v1h-1z"/><path fill="#3C6C2C" d="M29 12h1v1h-1z"/><path fill="#38682D" d="M30 12h1v1h-1z"/><path fill="#0F380F" d="M31 12h1v1h-1z"/><path fill="#71981B" d="M32 12h1v1h-1z"/><path fill="#6C951D" d="M33 12h1v1h-1z"/><path fill="#68911E" d="M34 12h1v1h-1z"/><path fill="#648E1F" d="M35 12h1v1h-1z"/><path fill="#608A20" d="M36 12h1v1h-1z"/><path fill="#5C8722" d="M37 12h1v1h-1z"/><path fill="#588423" d="M38 12h1v1h-1z"/><path fill="#548024" d="M39 12h1v1h-1z"/><path fill="#507D26" d="M40 12h1v1h-1z"/><path fill="#4C7927" d="M41 12h1v1h-1z"/><path fill="#487628" d="M42 12h1v1h-1z"/><path fill="#437229" d="M43 12h1v1h-1z"/><path fill="#3F6F2B" d="M44 12h1v1h-1z"/><path fill="#3B6B2C" d="M45 12h1v1h-1z"/><path fill="#37682D" d="M46 12h1v1h-1z"/><path fill="#0F380F" d="M47 12h1v1h-1zM0 13h1v1H0z"/><path fill="#6D951D" d="M1 13h1v1H1z"/><path fill="#69921E" d="M2 13h1v1H2z"/><path fill="#658E1F" d="M3 13h1v1H3z"/><path fill="#608B20" d="M4 13h1v1H4z"/><path fill="#5C8722" d="M5 13h1v1H5z"/><path fill="#588423" d="M6 13h1v1H6z"/><path fill="#548024" d="M7 13h1v1H7z"/><path fill="#507D25" d="M8 13h1v1H8z"/><path fill="#4C7927" d="M9 13h1v1H9z"/><path fill="#487628" d="M10 13h1v1h-1z"/><path fill="#447329" d="M11 13h1v1h-1z"/><path fill="#406F2B" d="M12 13h1v1h-1z"/><path fill="#3C6C2C" d="M13 13h1v1h-1z"/><path fill="#37682D" d="M14 13h1v1h-1z"/><path fill="#33652E" d="M15 13h1v1h-1z"/><path fill="#0F380F" d="M16 13h1v1h-1z"/><path fill="#69921E" d="M17 13h1v1h-1z"/><path fill="#658F1F" d="M18 13h1v1h-1z"/><path fill="#618B20" d="M19 13h1v1h-1z"/><path fill="#5D8822" d="M20 13h1v1h-1z"/><path fill="#598423" d="M21 13h1v1h-1z"/><path fill="#558124" d="M22 13h1v1h-1z"/><path fill="#507D25" d="M23 13h1v1h-1z"/><path fill="#4C7A27" d="M24 13h1v1h-1z"/><path fill="#487628" d="M25 13h1v1h-1z"/><path fill="#447329" d="M26 13h1v1h-1z"/><path fill="#406F2A" d="M27 13h1v1h-1z"/><path fill="#3C6C2C" d="M28 13h1v1h-1z"/><path fill="#38682D" d="M29 13h1v1h-1z"/><path fill="#34652E" d="M30 13h1v1h-1z"/><path fill="#0F380F" d="M31 13h1v1h-1z"/><path fill="#6D951D" d="M32 13h1v1h-1z"/><path fill="#69921E" d="M33 13h1v1h-1z"/><path fill="#658E1F" d="M34 13h1v1h-1z"/><path fill="#608B20" d="M35 13h1v1h-1z"/><path fill="#5C8722" d="M36 13h1v1h-1z"/><path fill="#588423" d="M37 13h1v1h-1z"/><path fill="#548024" d="M38 13h1v1h-1z"/><path fill="#507D25" d="M39 13h1v1h-1z"/><path fill="#4C7927" d="M40 13h1v1h-1z"/><path fill="#487628" d="M41 13h1v1h-1z"/><path fill="#447329" d="M42 13h1v1h-1z"/><path fill="#406F2B" d="M43 13h1v1h-1z"/><path fill="#3C6C2C" d="M44 13h1v1h-1z"/><path fill="#37682D" d="M45 13h1v1h-1z"/><path fill="#33652E" d="M46 13h1v1h-1z"/><path fill="#0F380F" d="M47 13h1v1h-1zM0 14h1v1H0z"/><path fill="#69921E" d="M1 14h1v1H1z"/><path fill="#658E1F" d="M2 14h1v1H2z"/><path fill="#618B20" d="M3 14h1v1H3z"/><path fill="#5D8722" d="M4 14h1v1H4z"/><path fill="#598423" d="M5 14h1v1H5z"/><path fill="#548124" d="M6 14h1v1H6z"/><path fill="#507D25" d="M7 14h1v1H7z"/><path fill="#4C7A27" d="M8 14h1v1H8z"/><path fill="#487628" d="M9 14h1v1H9z"/><path fill="#447329" d="M10 14h1v1h-1z"/><path fill="#406F2A" d="M11 14h1v1h-1z"/><path fill="#3C6C2C" d="M12 14h1v1h-1z"/><path fill="#38682D" d="M13 14h1v1h-1z"/><path fill="#34652E" d="M14 14h1v1h-1z"/><path fill="#306230" d="M15 14h1v1h-1z"/><path fill="#0F380F" d="M16 14h1v1h-1z"/><path fill="#658F1F" d="M17 14h1v1h-1z"/><path fill="#618B20" d="M18 14h1v1h-1z"/><path fill="#5D8822" d="M19 14h1v1h-1z"/><path fill="#598423" d="M20 14h1v1h-1z"/><path fill="#558124" d="M21 14h1v1h-1z"/><path fill="#507D25" d="M22 14h1v1h-1z"/><path fill="#4C7A27" d="M23 14h1v1h-1z"/><path fill="#487628" d="M24 14h1v1h-1z"/><path fill="#447329" d="M25 14h1v1h-1z"/><path fill="#406F2A" d="M26 14h1v1h-1z"/><path fill="#3C6C2C" d="M27 14h1v1h-1z"/><path fill="#38682D" d="M28 14h1v1h-1z"/><path fill="#34652E" d="M29 14h1v1h-1z"/><path fill="#306230" d="M30 14h1v1h-1z"/><path fill="#0F380F" d="M31 14h1v1h-1z"/><path fill="#69921E" d="M32 14h1v1h-1z"/><path fill="#658E1F" d="M33 14h1v1h-1z"/><path fill="#618B20" d="M34 14h1v1h-1z"/><path fill="#5D8722" d="M35 14h1v1h-1z"/><path fill="#598423" d="M36 14h1v1h-1z"/><path fill="#548124" d="M37 14h1v1h-1z"/><path fill="#507D25" d="M38 14h1v1h-1z"/><path fill="#4C7A27" d="M39 14h1v1h-1z"/><path fill="#487628" d="M40 14h1v1h-1z"/><path fill="#447329" d="M41 14h1v1h-1z"/><path fill="#406F2A" d="M42 14h1v1h-1z"/><path fill="#3C6C2C" d="M43 14h1v1h-1z"/><path fill="#38682D" d="M44 14h1v1h-1z"/><path fill="#34652E" d="M45 14h1v1h-1z"/><path fill="#306230" d="M46 14h1v1h-1z"/><path fill="#0F380F" d="M47 14h1v1h-1zM0 15h1v1H0zm1 0h1v1H1zm1 0h1v1H2zm1 0h1v1H3zm1 0h1v1H4zm1 0h1v1H5zm1 0h1v1H6zm1 0h1v1H7zm1 0h1v1H8zm1 0h1v1H9zm1 0h1v1h-1zm1 0h1v1h-1zm1 0h1v1h-1zm1 0h1v1h-1zm1 0h1v1h-1zm1 0h1v1h-1zm1 0h1v1h-1zm1 0h1v1h-1zm1 0h1v1h-1zm1 0h1v1h-1zm1 0h1v1h-1zm1 0h1v1h-1zm1 0h1v1h-1zm1 0h1v1h-1zm1 0h1v1h-1zm1 0h1v1h-1zm1 0h1v1h-1zm1 0h1v1h-1zm1 0h1v1h-1zm1 0h1v1h-1zm1 0h1v1h-1zm1 0h1v1h-1zm1 0h1v1h-1zm1 0h1v1h-1zm1 0h1v1h-1zm1 0h1v1h-1zm1 0h1v1h-1zm1 0h1v1h-1zm1 0h1v1h-1zm1 0h1v1h-1zm1 0h1v1h-1zm1 0h1v1h-1zm1 0h1v1h-1zm1 0h1v1h-1zm1 0h1v1h-1zm1 0h1v1h-1zm1 0h1v1h-1zm1 0h1v1h-1zm-31 1h1v1h-1z"/><path fill="#9BBC0F" d="M17 16h1v1h-1zm1 0h1v1h-1z"/><path fill="#96B810" d="M19 16h1v1h-1z"/><path fill="#92B511" d="M20 16h1v1h-1z"/><path fill="#8EB112" d="M21 16h1v1h-1z"/><path fill="#8AAE14" d="M22 16h1v1h-1z"/><path fill="#86AA15" d="M23 16h1v1h-1z"/><path fill="#82A716" d="M24 16h1v1h-1z"/><path fill="#7EA317" d="M25 16h1v1h-1z"/><path fill="#7AA019" d="M26 16h1v1h-1z"/><path fill="#759C1A" d="M27 16h1v1h-1z"/><path fill="#71991B" d="M28 16h1v1h-1z"/><path fill="#6D951C" d="M29 16h1v1h-1z"/><path fill="#69921E" d="M30 16h1v1h-1z"/><path fill="#0F380F" d="M31 16h1v1h-1zm-15 1h1v1h-1z"/><path fill="#9BBC0F" d="M17 17h1v1h-1z"/><path fill="#96B810" d="M18 17h1v1h-1z"/><path fill="#92B511" d="M19 17h1v1h-1z"/><path fill="#8EB112" d="M20 17h1v1h-1z"/><path fill="#8AAE14" d="M21 17h1v1h-1z"/><path fill="#86AA15" d="M22 17h1v1h-1z"/><path fill="#82A716" d="M23 17h1v1h-1z"/><path fill="#7EA317" d="M24 17h1v1h-1z"/><path fill="#7AA019" d="M25 17h1v1h-1z"/><path fill="#759C1A" d="M26 17h1v1h-1z"/><path fill="#71991B" d="M27 17h1v1h-1z"/><path fill="#6D951C" d="M28 17h1v1h-1z"/><path fill="#69921E" d="M29 17h1v1h-1z"/><path fill="#658F1F" d="M30 17h1v1h-1z"/><path fill="#0F380F" d="M31 17h1v1h-1zm-15 1h1v1h-1z"/><path fill="#96B810" d="M17 18h1v1h-1z"/><path fill="#92B511" d="M18 18h1v1h-1z"/><path fill="#8EB112" d="M19 18h1v1h-1z"/><path fill="#8AAE14" d="M20 18h1v1h-1z"/><path fill="#86AA15" d="M21 18h1v1h-1z"/><path fill="#82A716" d="M22 18h1v1h-1z"/><path fill="#7EA317" d="M23 18h1v1h-1z"/><path fill="#7AA019" d="M24 18h1v1h-1z"/><path fill="#759C1A" d="M25 18h1v1h-1z"/><path fill="#71991B" d="M26 18h1v1h-1z"/><path fill="#6D951C" d="M27 18h1v1h-1z"/><path fill="#69921E" d="M28 18h1v1h-1z"/><path fill="#658F1F" d="M29 18h1v1h-1z"/><path fill="#618B20" d="M30 18h1v1h-1z"/><path fill="#0F380F" d="M31 18h1v1h-1zm-15 1h1v1h-1z"/><path fill="#92B511" d="M17 19h1v1h-1z"/><path fill="#8EB112" d="M18 19h1v1h-1z"/><path fill="#8AAE14" d="M19 19h1v1h-1z"/><path fill="#86AA15" d="M20 19h1v1h-1z"/><path fill="#82A716" d="M21 19h1v1h-1z"/><path fill="#7EA317" d="M22 19h1v1h-1z"/><path fill="#7AA019" d="M23 19h1v1h-1z"/><path fill="#759C1A" d="M24 19h1v1h-1z"/><path fill="#71991B" d="M25 19h1v1h-1z"/><path fill="#6D951C" d="M26 19h1v1h-1z"/><path fill="#69921E" d="M27 19h1v1h-1z"/><path fill="#658F1F" d="M28 19h1v1h-1z"/><path fill="#618B20" d="M29 19h1v1h-1z"/><path fill="#5D8822" d="M30 19h1v1h-1z"/><path fill="#0F380F" d="M31 19h1v1h-1zm-15 1h1v1h-1z"/><path fill="#8EB112" d="M17 20h1v1h-1z"/><path fill="#8AAE14" d="M18 20h1v1h-1z"/><path fill="#86AA15" d="M19 20h1v1h-1z"/><path fill="#82A716" d="M20 20h1v1h-1z"/><path fill="#7EA317" d="M21 20h1v1h-1z"/><path fill="#7AA019" d="M22 20h1v1h-1z"/><path fill="#759C1A" d="M23 20h1v1h-1z"/><path fill="#71991B" d="M24 20h1v1h-1z"/><path fill="#6D951C" d="M25 20h1v1h-1z"/><path fill="#69921E" d="M26 20h1v1h-1z"/><path fill="#658F1F" d="M27 20h1v1h-1z"/><path fill="#618B20" d="M28 20h1v1h-1z"/><path fill="#5D8822" d="M29 20h1v1h-1z"/><path fill="#598423" d="M30 20h1v1h-1z"/><path fill="#0F380F" d="M31 20h1v1h-1zm-15 1h1v1h-1z"/><path fill="#8AAE14" d="M17 21h1v1h-1z"/><path fill="#86AA15" d="M18 21h1v1h-1z"/><path fill="#82A716" d="M19 21h1v1h-1z"/><path fill="#7EA317" d="M20 21h1v1h-1z"/><path fill="#7AA019" d="M21 21h1v1h-1z"/><path fill="#759C1A" d="M22 21h1v1h-1z"/><path fill="#71991B" d="M23 21h1v1h-1z"/><path fill="#6D951C" d="M24 21h1v1h-1z"/><path fill="#69921E" d="M25 21h1v1h-1z"/><path fill="#658F1F" d="M26 21h1v1h-1z"/><path fill="#618B20" d="M27 21h1v1h-1z"/><path fill="#5D8822" d="M28 21h1v1h-1z"/><path fill="#598423" d="M29 21h1v1h-1z"/><path fill="#558124" d="M30 21h1v1h-1z"/><path fill="#0F380F" d="M31 21h1v1h-1zm-15 1h1v1h-1z"/><path fill="#86AA15" d="M17 22h1v1h-1z"/><path fill="#82A716" d="M18 22h1v1h-1z"/><path fill="#7EA317" d="M19 22h1v1h-1z"/><path fill="#7AA019" d="M20 22h1v1h-1z"/><path fill="#759C1A" d="M21 22h1v1h-1z"/><path fill="#71991B" d="M22 22h1v1h-1z"/><path fill="#6D951C" d="M23 22h1v1h-1z"/><path fill="#69921E" d="M24 22h1v1h-1z"/><path fill="#658F1F" d="M25 22h1v1h-1z"/><path fill="#618B20" d="M26 22h1v1h-1z"/><path fill="#5D8822" d="M27 22h1v1h-1z"/><path fill="#598423" d="M28 22h1v1h-1z"/><path fill="#558124" d="M29 22h1v1h-1z"/><path fill="#507D25" d="M30 22h1v1h-1z"/><path fill="#0F380F" d="M31 22h1v1h-1zm-15 1h1v1h-1z"/><path fill="#82A716" d="M17 23h1v1h-1z"/><path fill="#7EA317" d="M18 23h1v1h-1z"/><path fill="#7AA019" d="M19 23h1v1h-1z"/><path fill="#759C1A" d="M20 23h1v1h-1z"/><path fill="#71991B" d="M21 23h1v1h-1z"/><path fill="#6D951C" d="M22 23h1v1h-1z"/><path fill="#69921E" d="M23 23h1v1h-1z"/><path fill="#658F1F" d="M24 23h1v1h-1z"/><path fill="#618B20" d="M25 23h1v1h-1z"/><path fill="#5D8822" d="M26 23h1v1h-1z"/><path fill="#598423" d="M27 23h1v1h-1z"/><path fill="#558124" d="M28 23h1v1h-1z"/><path fill="#507D25" d="M29 23h1v1h-1z"/><path fill="#4C7A27" d="M30 23h1v1h-1z"/><path fill="#0F380F" d="M31 23h1v1h-1zm-15 1h1v1h-1z"/><path fill="#7EA317" d="M17 24h1v1h-1z"/><path fill="#7AA019" d="M18 24h1v1h-1z"/><path fill="#759C1A" d="M19 24h1v1h-1z"/><path fill="#71991B" d="M20 24h1v1h-1z"/><path fill="#6D951C" d="M21 24h1v1h-1z"/><path fill="#69921E" d="M22 24h1v1h-1z"/><path fill="#658F1F" d="M23 24h1v1h-1z"/><path fill="#618B20" d="M24 24h1v1h-1z"/><path fill="#5D8822" d="M25 24h1v1h-1z"/><path fill="#598423" d="M26 24h1v1h-1z"/><path fill="#558124" d="M27 24h1v1h-1z"/><path fill="#507D25" d="M28 24h1v1h-1z"/><path fill="#4C7A27" d="M29 24h1v1h-1z"/><path fill="#487628" d="M30 24h1v1h-1z"/><path fill="#0F380F" d="M31 24h1v1h-1zm-15 1h1v1h-1z"/><path fill="#7AA019" d="M17 25h1v1h-1z"/><path fill="#759C1A" d="M18 25h1v1h-1z"/><path fill="#71991B" d="M19 25h1v1h-1z"/><path fill="#6D951C" d="M20 25h1v1h-1z"/><path fill="#69921E" d="M21 25h1v1h-1z"/><path fill="#658F1F" d="M22 25h1v1h-1z"/><path fill="#618B20" d="M23 25h1v1h-1z"/><path fill="#5D8822" d="M24 25h1v1h-1z"/><path fill="#598423" d="M25 25h1v1h-1z"/><path fill="#558124" d="M26 25h1v1h-1z"/><path fill="#507D25" d="M27 25h1v1h-1z"/><path fill="#4C7A27" d="M28 25h1v1h-1z"/><path fill="#487628" d="M29 25h1v1h-1z"/><path fill="#447329" d="M30 25h1v1h-1z"/><path fill="#0F380F" d="M31 25h1v1h-1zm-15 1h1v1h-1z"/><path fill="#759C1A" d="M17 26h1v1h-1z"/><path fill="#71991B" d="M18 26h1v1h-1z"/><path fill="#6D951C" d="M19 26h1v1h-1z"/><path fill="#69921E" d="M20 26h1v1h-1z"/><path fill="#658F1F" d="M21 26h1v1h-1z"/><path fill="#618B20" d="M22 26h1v1h-1z"/><path fill="#5D8822" d="M23 26h1v1h-1z"/><path fill="#598423" d="M24 26h1v1h-1z"/><path fill="#558124" d="M25 26h1v1h-1z"/><path fill="#507D25" d="M26 26h1v1h-1z"/><path fill="#4C7A27" d="M27 26h1v1h-1z"/><path fill="#487628" d="M28 26h1v1h-1z"/><path fill="#447329" d="M29 26h1v1h-1z"/><path fill="#406F2A" d="M30 26h1v1h-1z"/><path fill="#0F380F" d="M31 26h1v1h-1zm-15 1h1v1h-1z"/><path fill="#71991B" d="M17 27h1v1h-1z"/><path fill="#6D951C" d="M18 27h1v1h-1z"/><path fill="#69921E" d="M19 27h1v1h-1z"/><path fill="#658F1F" d="M20 27h1v1h-1z"/><path fill="#618B20" d="M21 27h1v1h-1z"/><path fill="#5D8822" d="M22 27h1v1h-1z"/><path fill="#598423" d="M23 27h1v1h-1z"/><path fill="#558124" d="M24 27h1v1h-1z"/><path fill="#507D25" d="M25 27h1v1h-1z"/><path fill="#4C7A27" d="M26 27h1v1h-1z"/><path fill="#487628" d="M27 27h1v1h-1z"/><path fill="#447329" d="M28 27h1v1h-1z"/><path fill="#406F2A" d="M29 27h1v1h-1z"/><path fill="#3C6C2C" d="M30 27h1v1h-1z"/><path fill="#0F380F" d="M31 27h1v1h-1zm-15 1h1v1h-1z"/><path fill="#6D951C" d="M17 28h1v1h-1z"/><path fill="#69921E" d="M18 28h1v1h-1z"/><path fill="#658F1F" d="M19 28h1v1h-1z"/><path fill="#618B20" d="M20 28h1v1h-1z"/><path fill="#5D8822" d="M21 28h1v1h-1z"/><path fill="#598423" d="M22 28h1v1h-1z"/><path fill="#558124" d="M23 28h1v1h-1z"/><path fill="#507D25" d="M24 28h1v1h-1z"/><path fill="#4C7A27" d="M25 28h1v1h-1z"/><path fill="#487628" d="M26 28h1v1h-1z"/><path fill="#447329" d="M27 28h1v1h-1z"/><path fill="#406F2A" d="M28 28h1v1h-1z"/><path fill="#3C6C2C" d="M29 28h1v1h-1z"/><path fill="#38682D" d="M30 28h1v1h-1z"/><path fill="#0F380F" d="M31 28h1v1h-1zm-15 1h1v1h-1z"/><path fill="#69921E" d="M17 29h1v1h-1z"/><path fill="#658F1F" d="M18 29h1v1h-1z"/><path fill="#618B20" d="M19 29h1v1h-1z"/><path fill="#5D8822" d="M20 29h1v1h-1z"/><path fill="#598423" d="M21 29h1v1h-1z"/><path fill="#558124" d="M22 29h1v1h-1z"/><path fill="#507D25" d="M23 29h1v1h-1z"/><path fill="#4C7A27" d="M24 29h1v1h-1z"/><path fill="#487628" d="M25 29h1v1h-1z"/><path fill="#447329" d="M26 29h1v1h-1z"/><path fill="#406F2A" d="M27 29h1v1h-1z"/><path fill="#3C6C2C" d="M28 29h1v1h-1z"/><path fill="#38682D" d="M29 29h1v1h-1z"/><path fill="#34652E" d="M30 29h1v1h-1z"/><path fill="#0F380F" d="M31 29h1v1h-1zm-15 1h1v1h-1z"/><path fill="#658F1F" d="M17 30h1v1h-1z"/><path fill="#618B20" d="M18 30h1v1h-1z"/><path fill="#5D8822" d="M19 30h1v1h-1z"/><path fill="#598423" d="M20 30h1v1h-1z"/><path fill="#558124" d="M21 30h1v1h-1z"/><path fill="#507D25" d="M22 30h1v1h-1z"/><path fill="#4C7A27" d="M23 30h1v1h-1z"/><path fill="#487628" d="M24 30h1v1h-1z"/><path fill="#447329" d="M25 30h1v1h-1z"/><path fill="#406F2A" d="M26 30h1v1h-1z"/><path fill="#3C6C2C" d="M27 30h1v1h-1z"/><path fill="#38682D" d="M28 30h1v1h-1z"/><path fill="#34652E" d="M29 30h1v1h-1z"/><path fill="#306230" d="M30 30h1v1h-1z"/><path fill="#0F380F" d="M31 30h1v1h-1zm-15 1h1v1h-1zm1 0h1v1h-1zm1 0h1v1h-1zm1 0h1v1h-1zm1 0h1v1h-1zm1 0h1v1h-1zm1 0h1v1h-1zm1 0h1v1h-1zm1 0h1v1h-1zm1 0h1v1h-1zm1 0h1v1h-1zm1 0h1v1h-1zm1 0h1v1h-1zm1 0h1v1h-1zm1 0h1v1h-1zm1 0h1v1h-1z"/></svg>